<svg width="112" height="57" viewBox="0 0 112 57" fill="none" xmlns="http://www.w3.org/2000/svg">
<g clip-path="url(#clip0_35_23568)">
<path d="M23.4782 29.1668C23.2403 29.0285 23.1426 28.7327 23.2506 28.4782C24.3415 25.9115 24.3415 23.0059 23.2506 20.4392C23.1426 20.1847 23.2403 19.8889 23.4782 19.7506L25.7122 18.4536C25.8449 18.3753 26.0043 18.3577 26.1507 18.4049C26.2971 18.4522 26.4167 18.5599 26.4797 18.7013C28.1389 22.3571 28.1389 26.5603 26.4797 30.2161C26.4167 30.3575 26.2971 30.4652 26.1507 30.5125C26.0043 30.5597 25.8449 30.542 25.7122 30.4638L23.4782 29.1668Z" fill="#8EC8D3"/>
<path d="M15.1074 34.6845C17.8518 34.3323 20.3396 32.879 22.0082 30.6532C22.1731 30.4324 22.4755 30.3707 22.7125 30.5093L24.9376 31.8045C25.0714 31.8815 25.1664 32.0123 25.1988 32.1642C25.2312 32.3162 25.1979 32.4748 25.1073 32.6005C22.7829 35.8584 19.1885 37.9586 15.2302 38.3716C15.0768 38.3882 14.9237 38.338 14.8092 38.2337C14.6947 38.1293 14.6298 37.9807 14.6306 37.8251V35.2274C14.6305 34.9508 14.8352 34.7177 15.1074 34.6845Z" fill="#F7941E"/>
<path d="M12.4959 38.3719C8.536 37.9595 4.94005 35.8586 2.61517 32.5991C2.52582 32.4736 2.49331 32.3158 2.52565 32.1648C2.558 32.0138 2.6522 31.8837 2.78493 31.8066L5.01355 30.5078C5.24981 30.3714 5.54972 30.433 5.71429 30.6517C7.38272 32.8798 9.87234 34.3341 12.6187 34.6849C12.8908 34.7199 13.0941 34.9546 13.0919 35.2314V37.8345C13.0901 37.9879 13.0245 38.1334 12.9112 38.2356C12.7978 38.3378 12.6471 38.3873 12.4959 38.3719Z" fill="#196A87"/>
<path d="M2.01189 30.4628C1.87987 30.5414 1.72103 30.5599 1.57474 30.5137C1.42845 30.4675 1.3084 30.361 1.24433 30.2205C-0.414778 26.5653 -0.414778 22.3628 1.24433 18.7076C1.30631 18.5653 1.42548 18.4563 1.57199 18.4079C1.7185 18.3596 1.87849 18.3765 2.01189 18.4544L4.23871 19.7496C4.47748 19.888 4.57538 20.185 4.46626 20.44C3.37419 23.0059 3.37419 25.9114 4.46626 28.4772C4.57569 28.7318 4.47861 29.0287 4.24051 29.1676L2.01189 30.4628Z" fill="#DC1D40"/>
<path d="M7.69532 26.1188V30.7167C7.69419 30.89 7.77461 31.0536 7.91206 31.1575C8.52112 31.6115 9.17906 31.9947 9.87339 32.2997C10.0427 32.378 10.24 32.3631 10.3958 32.2603C10.5517 32.1575 10.6442 31.9811 10.6409 31.7933V26.1188C10.6409 25.817 10.3984 25.5723 10.0991 25.5723H8.24256C8.09793 25.5709 7.95872 25.6278 7.85594 25.7304C7.75315 25.8331 7.69532 25.9729 7.69532 26.1188Z" fill="#1E3948"/>
<path d="M12.3892 22.7613V32.7295C12.3874 33.0087 12.5946 33.2444 12.8696 33.276C13.1965 33.3088 13.527 33.3252 13.8629 33.3252C14.1988 33.3252 14.5275 33.3088 14.8544 33.276C15.1294 33.2444 15.3366 33.0087 15.3348 32.7295V22.7613C15.3348 22.4595 15.0922 22.2148 14.793 22.2148H12.9256C12.6285 22.2178 12.3892 22.4616 12.3892 22.7613Z" fill="#1E3948"/>
<path d="M17.446 18.5117C17.2465 18.5117 17.0848 18.6748 17.0848 18.8761V31.7916C17.0812 31.9793 17.1733 32.1557 17.3287 32.2588C17.4841 32.362 17.6812 32.3775 17.8506 32.2999C18.5449 31.9949 19.2028 31.6117 19.8119 31.1577C19.9494 31.0537 20.0298 30.8902 20.0286 30.7169V20.9946V18.8779C20.0286 18.6767 19.8669 18.5135 19.6674 18.5135" fill="#1E3948"/>
<path d="M105.081 17.4961L103.655 24.8072C104.625 23.8126 105.704 23.3235 106.894 23.34C108.308 23.3577 109.41 23.8674 110.2 24.869C110.989 25.8707 111.406 27.2324 111.451 28.9541C111.461 29.5159 111.438 30.0778 111.384 30.637L111.346 30.9198C111.072 33.2767 110.383 35.1351 109.281 36.495C108.179 37.8549 106.73 38.5102 104.934 38.4607C103.513 38.4253 102.421 37.8237 101.657 36.6559L101.109 38.1778H97.1368L100.696 17.4961H105.081ZM91.6055 23.34C92.7905 23.3255 93.9538 23.6623 94.9513 24.3087C95.9002 24.951 96.6251 25.8786 97.0231 26.9602C97.4724 28.1619 97.6343 29.4538 97.4956 30.7306L97.4693 31.0258C97.2243 33.2649 96.4019 35.0697 95.002 36.4402C93.6021 37.8108 91.8791 38.4807 89.8329 38.4501C88.6554 38.4646 87.4995 38.1303 86.5081 37.4885C85.5658 36.8524 84.8414 35.9373 84.4345 34.8688C83.977 33.679 83.8101 32.3954 83.9481 31.1266C84.1697 28.7391 84.9811 26.8359 86.3821 25.417C87.7832 23.9982 89.5243 23.3058 91.6055 23.34ZM56.0008 23.3435C57.2363 23.3612 58.2938 23.6782 59.1734 24.2946C60.06 24.9233 60.7323 25.8136 61.0982 26.8435C61.5203 28.0107 61.6601 29.2628 61.5059 30.4955L61.2522 32.3339H52.6691C52.6562 33.0103 52.8827 33.6691 53.3078 34.1917C53.7173 34.669 54.3128 34.9206 55.0944 34.9465C56.3648 34.9819 57.5069 34.4881 58.5207 33.4652L60.3545 35.9223C59.7757 36.7312 58.9891 37.365 58.0797 37.7554C57.0768 38.2061 55.9926 38.4426 54.8949 38.4501H54.6534C53.4438 38.462 52.2534 38.1438 51.2079 37.5291C50.2121 36.936 49.4158 36.0541 48.9226 34.9978C48.4021 33.8837 48.1905 32.6478 48.3102 31.4218L48.3504 31.0453C48.5907 28.6483 49.4149 26.7522 50.823 25.3569C52.231 23.9616 53.957 23.2905 56.0008 23.3435ZM34.9254 18.5726L41.0972 18.5867C43.533 18.595 45.3505 19.0617 46.5498 19.9867C47.749 20.9118 48.2956 22.2081 48.1894 23.8756C48.0541 25.9403 46.9342 27.4033 44.8297 28.2647C45.5719 28.5229 46.1982 29.0408 46.5953 29.7248C47.0312 30.4941 47.2201 31.381 47.136 32.2632C47.0112 34.1582 46.2716 35.6171 44.9172 36.64C43.5628 37.6629 41.7091 38.1755 39.3561 38.1778H31.5674L34.9254 18.5726ZM70.4233 18.5726L72.2764 32.1731L78.7807 18.5726H84.8527L81.493 38.1778H76.9083L77.7343 33.3715L79.7064 24.512L72.9099 38.1778H69.8913L67.6917 23.9994L66.4668 33.8294L65.7074 38.1778H61.1472L64.5052 18.5726H70.4233ZM89.3324 27.844C88.8133 28.5381 88.482 29.6329 88.3385 31.1284L88.3 31.9221C88.174 33.9254 88.7783 34.9424 90.1129 34.9731C91.8371 35.0284 92.8362 33.6143 93.1104 30.7306L93.1646 29.5074C93.1821 28.6996 93.0334 28.0579 92.7184 27.5771C92.4103 27.1013 91.8813 26.8194 91.3185 26.8312C90.528 26.8005 89.7775 27.1833 89.3324 27.844ZM103.3 28.0102L102.259 33.817C102.535 34.5606 103.139 34.9418 104.072 34.9607C105.503 35.0055 106.405 34.0627 106.779 32.1324L106.964 30.9357L106.987 30.6582C107.056 30.1412 107.097 29.6207 107.108 29.0991C107.108 27.6567 106.597 26.9036 105.575 26.84C104.668 26.8046 103.91 27.1947 103.3 28.0102ZM37.5659 29.8433L36.7523 34.5294L39.4856 34.5417C40.2456 34.5692 40.9938 34.3458 41.6169 33.9054C42.1713 33.5038 42.5377 32.8895 42.6301 32.2067C42.8786 30.7124 42.3122 29.9293 40.931 29.8574L37.5659 29.8433ZM55.7209 26.84V26.8435C55.1247 26.816 54.542 27.0283 54.1005 27.4339C53.6432 27.844 53.246 28.5317 52.9088 29.4968H57.294L57.3727 29.1079C57.4261 28.8164 57.4355 28.5184 57.4007 28.2241C57.2491 27.3296 56.6891 26.8683 55.7209 26.84ZM38.8696 22.2087L38.0909 26.7463L40.2362 26.7605C42.2194 26.7145 43.3277 25.9444 43.561 24.4501C43.7745 22.9747 43.0191 22.2323 41.2949 22.2228L38.8696 22.2087Z" fill="#1E3948"/>
</g>
<defs>
<clipPath id="clip0_35_23568">
<rect width="112" height="21.0424" fill="white" transform="translate(0 17.4961)"/>
</clipPath>
</defs>
</svg>
