<svg width="80" height="80" viewBox="0 0 80 80" fill="none" xmlns="http://www.w3.org/2000/svg">
<path d="M53.1932 8.66881C53.1932 8.36885 52.9532 8.12888 52.6532 8.12888C52.3533 8.12888 52.1133 8.36885 52.1133 8.66881C52.1133 8.96877 52.3533 9.20874 52.6532 9.20874C52.9532 9.20874 53.1932 8.96877 53.1932 8.66881Z" fill="#141D22"/>
<path d="M53.1932 58.9726C53.1932 58.6726 52.9532 58.4326 52.6532 58.4326C52.3533 58.4326 52.1133 58.6726 52.1133 58.9726C52.1133 59.2725 52.3533 59.5125 52.6532 59.5125C52.9532 59.5125 53.1932 59.2725 53.1932 58.9726Z" fill="#141D22"/>
<path d="M47.6734 46.2144C47.6734 45.6144 47.1935 45.1345 46.5936 45.1345C45.9936 45.1345 45.5137 45.6144 45.5137 46.2144C45.5137 46.8143 45.9936 47.2942 46.5936 47.2942C47.1935 47.2942 47.6734 46.8143 47.6734 46.2144Z" fill="#141D22"/>
<path d="M41.3648 46.2144C41.3648 45.6144 40.8849 45.1345 40.285 45.1345C39.685 45.1345 39.2051 45.6144 39.2051 46.2144C39.2051 46.8143 39.685 47.2942 40.285 47.2942C40.8849 47.2942 41.3648 46.8143 41.3648 46.2144Z" fill="#141D22"/>
<path d="M36.1358 46.2143C36.1358 45.0244 35.166 44.0546 33.9761 44.0546C32.7863 44.0546 31.8164 45.0244 31.8164 46.2143C31.8164 47.4041 32.7863 48.374 33.9761 48.374C35.166 48.374 36.1358 47.4041 36.1358 46.2143Z" fill="#141D22"/>
<path d="M29.837 46.2143C29.837 45.0244 28.8671 44.0546 27.6773 44.0546C26.4874 44.0546 25.5176 45.0244 25.5176 46.2143C25.5176 47.4041 26.4874 48.374 27.6773 48.374C28.8671 48.374 29.837 47.4041 29.837 46.2143Z" fill="#141D22"/>
<path d="M22.4478 27.2968C22.4478 26.6969 21.9679 26.2169 21.368 26.2169C20.768 26.2169 20.2881 26.6969 20.2881 27.2968C20.2881 27.8967 20.768 28.3767 21.368 28.3767C21.9679 28.3767 22.4478 27.8967 22.4478 27.2968Z" fill="#141D22"/>
<path d="M23.5275 46.2143C23.5275 45.0244 22.5576 44.0546 21.3677 44.0546C20.1779 44.0546 19.208 45.0244 19.208 46.2143C19.208 47.4041 20.1779 48.374 21.3677 48.374C22.5576 48.374 23.5275 47.4041 23.5275 46.2143Z" fill="#141D22"/>
<path d="M22.4478 65.1319C22.4478 64.532 21.9679 64.0521 21.368 64.0521C20.768 64.0521 20.2881 64.532 20.2881 65.1319C20.2881 65.7319 20.768 66.2118 21.368 66.2118C21.9679 66.2118 22.4478 65.7319 22.4478 65.1319Z" fill="#141D22"/>
<path d="M17.2179 33.5957C17.2179 32.4059 16.248 31.436 15.0582 31.436C13.8683 31.436 12.8984 32.4059 12.8984 33.5957C12.8984 34.7856 13.8683 35.7555 15.0582 35.7555C16.248 35.7555 17.2179 34.7856 17.2179 33.5957Z" fill="#141D22"/>
<path d="M17.2179 46.2143C17.2179 45.0244 16.248 44.0546 15.0582 44.0546C13.8683 44.0546 12.8984 45.0244 12.8984 46.2143C12.8984 47.4041 13.8683 48.374 15.0582 48.374C16.248 48.374 17.2179 47.4041 17.2179 46.2143Z" fill="#141D22"/>
<path d="M17.2179 58.8226C17.2179 57.6327 16.248 56.6628 15.0582 56.6628C13.8683 56.6628 12.8984 57.6327 12.8984 58.8226C12.8984 60.0124 13.8683 60.9823 15.0582 60.9823C16.248 60.9823 17.2179 60.0124 17.2179 58.8226Z" fill="#141D22"/>
<path d="M10.9083 39.905C10.9083 38.7152 9.93845 37.7453 8.7486 37.7453C7.55875 37.7453 6.58887 38.7152 6.58887 39.905C6.58887 41.0949 7.55875 42.0648 8.7486 42.0648C9.93845 42.0648 10.9083 41.0949 10.9083 39.905Z" fill="#141D22"/>
<path d="M10.9083 46.2143C10.9083 45.0244 9.93845 44.0546 8.7486 44.0546C7.55875 44.0546 6.58887 45.0244 6.58887 46.2143C6.58887 47.4041 7.55875 48.374 8.7486 48.374C9.93845 48.374 10.9083 47.4041 10.9083 46.2143Z" fill="#141D22"/>
<path d="M10.9083 52.5236C10.9083 51.3337 9.93845 50.3638 8.7486 50.3638C7.55875 50.3638 6.58887 51.3337 6.58887 52.5236C6.58887 53.7134 7.55875 54.6833 8.7486 54.6833C9.93845 54.6833 10.9083 53.7134 10.9083 52.5236Z" fill="#141D22"/>
<path d="M4.60951 46.2143C4.60951 45.0244 3.63962 44.0546 2.44977 44.0546C1.25992 44.0546 0.290039 45.0244 0.290039 46.2143C0.290039 47.4041 1.25992 48.374 2.44977 48.374C3.63962 48.374 4.60951 47.4041 4.60951 46.2143Z" fill="#141D22"/>
<path d="M66.3121 46.4043C66.3121 45.8043 65.8321 45.3244 65.2322 45.3244C64.6323 45.3244 64.1523 45.8043 64.1523 46.4043C64.1523 47.0042 64.6323 47.4841 65.2322 47.4841C65.8321 47.4841 66.3121 47.0042 66.3121 46.4043Z" fill="#141D22"/>
<path d="M53.1531 46.4043C53.1531 46.1044 52.9131 45.8644 52.6132 45.8644C52.3132 45.8644 52.0732 46.1044 52.0732 46.4043C52.0732 46.7043 52.3132 46.9442 52.6132 46.9442C52.9131 46.9442 53.1531 46.7043 53.1531 46.4043Z" fill="#141D22"/>
<path d="M27.9265 71.6209C27.9265 71.3209 27.6866 71.081 27.3866 71.081C27.0867 71.081 26.8467 71.3209 26.8467 71.6209C26.8467 71.9209 27.0867 72.1608 27.3866 72.1608C27.6866 72.1608 27.9265 71.9209 27.9265 71.6209Z" fill="#141D22"/>
<path d="M27.9265 21.1673C27.9265 20.8673 27.6866 20.6273 27.3866 20.6273C27.0867 20.6273 26.8467 20.8673 26.8467 21.1673C26.8467 21.4672 27.0867 21.7072 27.3866 21.7072C27.6866 21.7072 27.9265 21.4672 27.9265 21.1673Z" fill="#141D22"/>
<path d="M79.9201 33.7359C79.9201 32.546 78.9502 31.5761 77.7603 31.5761C76.5705 31.5761 75.6006 32.546 75.6006 33.7359C75.6006 34.9257 76.5705 35.8956 77.7603 35.8956C78.9502 35.8956 79.9201 34.9257 79.9201 33.7359Z" fill="#141D22"/>
<path d="M73.6202 27.4363C73.6202 26.2465 72.6504 25.2766 71.4605 25.2766C70.2707 25.2766 69.3008 26.2465 69.3008 27.4363C69.3008 28.6262 70.2707 29.5961 71.4605 29.5961C72.6504 29.5961 73.6202 28.6262 73.6202 27.4363Z" fill="#141D22"/>
<path d="M73.6202 33.7359C73.6202 32.546 72.6504 31.5761 71.4605 31.5761C70.2707 31.5761 69.3008 32.546 69.3008 33.7359C69.3008 34.9257 70.2707 35.8956 71.4605 35.8956C72.6504 35.8956 73.6202 34.9257 73.6202 33.7359Z" fill="#141D22"/>
<path d="M73.6202 40.0451C73.6202 38.8553 72.6504 37.8854 71.4605 37.8854C70.2707 37.8854 69.3008 38.8553 69.3008 40.0451C69.3008 41.235 70.2707 42.2049 71.4605 42.2049C72.6504 42.2049 73.6202 41.235 73.6202 40.0451Z" fill="#141D22"/>
<path d="M67.3117 21.1276C67.3117 19.9377 66.3418 18.9678 65.1519 18.9678C63.9621 18.9678 62.9922 19.9377 62.9922 21.1276C62.9922 22.3174 63.9621 23.2873 65.1519 23.2873C66.3418 23.2873 67.3117 22.3174 67.3117 21.1276Z" fill="#141D22"/>
<path d="M67.3117 33.7359C67.3117 32.546 66.3418 31.5761 65.1519 31.5761C63.9621 31.5761 62.9922 32.546 62.9922 33.7359C62.9922 34.9257 63.9621 35.8956 65.1519 35.8956C66.3418 35.8956 67.3117 34.9257 67.3117 33.7359Z" fill="#141D22"/>
<path d="M67.3117 46.3544C67.3117 45.1646 66.3418 44.1947 65.1519 44.1947C63.9621 44.1947 62.9922 45.1646 62.9922 46.3544C62.9922 47.5443 63.9621 48.5141 65.1519 48.5141C66.3418 48.5141 67.3117 47.5443 67.3117 46.3544Z" fill="#141D22"/>
<path d="M59.9224 14.8184C59.9224 14.2185 59.4425 13.7385 58.8426 13.7385C58.2427 13.7385 57.7627 14.2185 57.7627 14.8184C57.7627 15.4183 58.2427 15.8983 58.8426 15.8983C59.4425 15.8983 59.9224 15.4183 59.9224 14.8184Z" fill="#141D22"/>
<path d="M61.0031 33.7359C61.0031 32.546 60.0332 31.5761 58.8433 31.5761C57.6535 31.5761 56.6836 32.546 56.6836 33.7359C56.6836 34.9257 57.6535 35.8956 58.8433 35.8956C60.0332 35.8956 61.0031 34.9257 61.0031 33.7359Z" fill="#141D22"/>
<path d="M54.6935 33.7359C54.6935 32.546 53.7236 31.5761 52.5338 31.5761C51.3439 31.5761 50.374 32.546 50.374 33.7359C50.374 34.9257 51.3439 35.8956 52.5338 35.8956C53.7236 35.8956 54.6935 34.9257 54.6935 33.7359Z" fill="#141D22"/>
<path d="M48.3937 33.7359C48.3937 32.546 47.4238 31.5761 46.234 31.5761C45.0441 31.5761 44.0742 32.546 44.0742 33.7359C44.0742 34.9257 45.0441 35.8956 46.234 35.8956C47.4238 35.8956 48.3937 34.9257 48.3937 33.7359Z" fill="#141D22"/>
<path d="M41.0045 33.7359C41.0045 33.136 40.5245 32.6561 39.9246 32.6561C39.3247 32.6561 38.8447 33.136 38.8447 33.7359C38.8447 34.3359 39.3247 34.8158 39.9246 34.8158C40.5245 34.8158 41.0045 34.3359 41.0045 33.7359Z" fill="#141D22"/>
<path d="M34.6959 33.7359C34.6959 33.136 34.2159 32.6561 33.616 32.6561C33.0161 32.6561 32.5361 33.136 32.5361 33.7359C32.5361 34.3359 33.0161 34.8158 33.616 34.8158C34.2159 34.8158 34.6959 34.3359 34.6959 33.7359Z" fill="#141D22"/>
<path d="M60.2125 52.6633C60.2125 52.0633 59.7325 51.5834 59.1326 51.5834C58.5327 51.5834 58.0527 52.0633 58.0527 52.6633C58.0527 53.2632 58.5327 53.7431 59.1326 53.7431C59.7325 53.7431 60.2125 53.2632 60.2125 52.6633Z" fill="#141D22"/>
<path d="M28.1365 33.7457C28.1365 33.4458 27.8965 33.2058 27.5966 33.2058C27.2966 33.2058 27.0566 33.4458 27.0566 33.7457C27.0566 34.0457 27.2966 34.2857 27.5966 34.2857C27.8965 34.2857 28.1365 34.0457 28.1365 33.7457Z" fill="#141D22"/>
<path d="M16.0679 33.7457C16.0679 33.1458 15.588 32.6658 14.9881 32.6658C14.3881 32.6658 13.9082 33.1458 13.9082 33.7457C13.9082 34.3456 14.3881 34.8256 14.9881 34.8256C15.588 34.8256 16.0679 34.3456 16.0679 33.7457Z" fill="#141D22"/>
</svg>
