<svg width="136" height="67" viewBox="0 0 136 67" fill="none" xmlns="http://www.w3.org/2000/svg">
  <path
    d="M39.8143 43.5531H38.619L38.6125 43.051H39.6977C39.877 43.051 40.0336 43.0208 40.1675 42.9603C40.3014 42.8998 40.405 42.8134 40.4784 42.7011C40.554 42.5867 40.5918 42.4506 40.5918 42.293C40.5918 42.1202 40.5584 41.9798 40.4914 41.8718C40.4266 41.7617 40.3262 41.6818 40.1901 41.6321C40.0562 41.5803 39.8856 41.5544 39.6783 41.5544H38.7583V45.7592H38.1331V41.0425H39.6783C39.9202 41.0425 40.1361 41.0674 40.3262 41.117C40.5162 41.1645 40.6771 41.2401 40.8089 41.3438C40.9428 41.4453 41.0443 41.5749 41.1134 41.7325C41.1825 41.8902 41.217 42.0792 41.217 42.2994C41.217 42.4938 41.1674 42.6698 41.068 42.8275C40.9687 42.983 40.8305 43.1104 40.6534 43.2097C40.4784 43.3091 40.2733 43.3728 40.0379 43.4009L39.8143 43.5531ZM39.7852 45.7592H38.3728L38.7259 45.2506H39.7852C39.9839 45.2506 40.1523 45.2161 40.2906 45.1469C40.4309 45.0778 40.5378 44.9807 40.6113 44.8554C40.6847 44.728 40.7214 44.5779 40.7214 44.4051C40.7214 44.2302 40.6901 44.079 40.6275 43.9516C40.5648 43.8242 40.4666 43.7259 40.3327 43.6568C40.1988 43.5877 40.026 43.5531 39.8143 43.5531H38.9235L38.93 43.051H40.148L40.2808 43.2324C40.5076 43.2518 40.6998 43.3166 40.8575 43.4268C41.0151 43.5348 41.135 43.673 41.217 43.8414C41.3013 44.0099 41.3434 44.1956 41.3434 44.3986C41.3434 44.6923 41.2786 44.9407 41.149 45.1437C41.0216 45.3446 40.8413 45.4979 40.608 45.6037C40.3748 45.7074 40.1005 45.7592 39.7852 45.7592Z"
    fill="black" />
  <path
    d="M43.4314 45.824C43.1874 45.824 42.966 45.783 42.7673 45.7009C42.5708 45.6167 42.4013 45.499 42.2587 45.3478C42.1184 45.1966 42.0104 45.0174 41.9348 44.81C41.8592 44.6027 41.8214 44.376 41.8214 44.1297V43.9937C41.8214 43.7086 41.8635 43.4549 41.9477 43.2324C42.032 43.0078 42.1464 42.8178 42.2911 42.6623C42.4358 42.5068 42.6 42.3891 42.7835 42.3092C42.9671 42.2293 43.1572 42.1893 43.3537 42.1893C43.6042 42.1893 43.8202 42.2325 44.0016 42.3189C44.1852 42.4053 44.3352 42.5262 44.4519 42.6817C44.5685 42.835 44.6549 43.0164 44.711 43.2259C44.7672 43.4333 44.7953 43.66 44.7953 43.9062V44.1751H42.1777V43.6859H44.1959V43.6406C44.1873 43.4851 44.1549 43.3339 44.0988 43.1871C44.0448 43.0402 43.9584 42.9193 43.8396 42.8242C43.7208 42.7292 43.5588 42.6817 43.3537 42.6817C43.2176 42.6817 43.0924 42.7109 42.9779 42.7692C42.8634 42.8253 42.7652 42.9095 42.6831 43.0218C42.601 43.1341 42.5373 43.2713 42.492 43.4333C42.4466 43.5952 42.4239 43.782 42.4239 43.9937V44.1297C42.4239 44.296 42.4466 44.4526 42.492 44.5995C42.5395 44.7442 42.6075 44.8716 42.6961 44.9817C42.7868 45.0919 42.8958 45.1783 43.0233 45.2409C43.1528 45.3035 43.2997 45.3348 43.4638 45.3348C43.6755 45.3348 43.8547 45.2916 44.0016 45.2053C44.1484 45.1189 44.2769 45.0033 44.3871 44.8586L44.7499 45.1469C44.6743 45.2614 44.5782 45.3705 44.4616 45.4741C44.345 45.5778 44.2013 45.662 44.0307 45.7268C43.8623 45.7916 43.6625 45.824 43.4314 45.824Z"
    fill="black" />
  <path
    d="M47.3368 44.8295C47.3368 44.7431 47.3174 44.6632 47.2785 44.5898C47.2418 44.5142 47.1651 44.4461 47.0485 44.3857C46.934 44.323 46.7613 44.269 46.5302 44.2237C46.3358 44.1827 46.1598 44.1341 46.0022 44.0779C45.8467 44.0218 45.7138 43.9537 45.6037 43.8738C45.4957 43.7939 45.4126 43.7 45.3543 43.592C45.2959 43.484 45.2668 43.3577 45.2668 43.213C45.2668 43.0748 45.297 42.9441 45.3575 42.821C45.4201 42.6979 45.5076 42.5888 45.6199 42.4938C45.7344 42.3988 45.8715 42.3243 46.0313 42.2703C46.1911 42.2163 46.3693 42.1893 46.5658 42.1893C46.8466 42.1893 47.0863 42.239 47.285 42.3383C47.4837 42.4377 47.6359 42.5705 47.7418 42.7368C47.8476 42.9009 47.9005 43.0834 47.9005 43.2842H47.3012C47.3012 43.1871 47.272 43.0931 47.2137 43.0024C47.1576 42.9095 47.0744 42.8329 46.9643 42.7724C46.8563 42.7119 46.7235 42.6817 46.5658 42.6817C46.3995 42.6817 46.2646 42.7076 46.1609 42.7594C46.0594 42.8091 45.9849 42.8728 45.9374 42.9506C45.892 43.0283 45.8693 43.1104 45.8693 43.1968C45.8693 43.2616 45.8801 43.3199 45.9017 43.3717C45.9255 43.4214 45.9665 43.4678 46.0248 43.511C46.0831 43.552 46.1652 43.5909 46.271 43.6276C46.3769 43.6643 46.5118 43.7011 46.676 43.7378C46.9632 43.8026 47.1997 43.8803 47.3854 43.971C47.5711 44.0617 47.7094 44.1729 47.8001 44.3047C47.8908 44.4364 47.9361 44.5962 47.9361 44.7841C47.9361 44.9375 47.9037 45.0778 47.8389 45.2053C47.7763 45.3327 47.6845 45.4428 47.5636 45.5357C47.4448 45.6264 47.3023 45.6977 47.136 45.7495C46.9718 45.7992 46.7872 45.824 46.582 45.824C46.2732 45.824 46.0119 45.7689 45.7981 45.6588C45.5843 45.5486 45.4223 45.4061 45.3121 45.2312C45.202 45.0562 45.1469 44.8716 45.1469 44.6772H45.7495C45.7581 44.8414 45.8056 44.972 45.892 45.0692C45.9784 45.1642 46.0842 45.2323 46.2095 45.2733C46.3347 45.3122 46.4589 45.3316 46.582 45.3316C46.7462 45.3316 46.8833 45.31 46.9934 45.2668C47.1057 45.2236 47.191 45.1642 47.2494 45.0886C47.3077 45.013 47.3368 44.9267 47.3368 44.8295Z"
    fill="black" />
  <path
    d="M49.9918 42.2541V42.7141H48.0967V42.2541H49.9918ZM48.7381 41.4021H49.3374V44.891C49.3374 45.0098 49.3558 45.0994 49.3925 45.1599C49.4292 45.2204 49.4767 45.2603 49.535 45.2798C49.5933 45.2992 49.656 45.3089 49.7229 45.3089C49.7726 45.3089 49.8244 45.3046 49.8784 45.296C49.9345 45.2852 49.9767 45.2765 50.0047 45.27L50.008 45.7592C49.9605 45.7743 49.8978 45.7884 49.8201 45.8013C49.7445 45.8164 49.6527 45.824 49.5447 45.824C49.3979 45.824 49.2629 45.7948 49.1398 45.7365C49.0167 45.6782 48.9184 45.581 48.845 45.445C48.7737 45.3068 48.7381 45.121 48.7381 44.8878V41.4021Z"
    fill="black" />
  <path
    d="M53.7791 41.4604L52.2177 45.7592H51.5795L53.3774 41.0425H53.7888L53.7791 41.4604ZM55.0879 45.7592L53.5232 41.4604L53.5135 41.0425H53.9249L55.7293 45.7592H55.0879ZM55.0069 44.0131V44.525H52.357V44.0131H55.0069Z"
    fill="black" />
  <path
    d="M56.9654 45.7592H56.366V41.8848C56.366 41.6321 56.4114 41.4194 56.5021 41.2466C56.595 41.0717 56.7278 40.9399 56.9006 40.8514C57.0733 40.7607 57.2785 40.7153 57.5161 40.7153C57.5852 40.7153 57.6543 40.7197 57.7234 40.7283C57.7947 40.7369 57.8638 40.7499 57.9307 40.7672L57.8983 41.2563C57.853 41.2455 57.8011 41.238 57.7428 41.2336C57.6867 41.2293 57.6305 41.2272 57.5744 41.2272C57.447 41.2272 57.3368 41.2531 57.2439 41.3049C57.1532 41.3546 57.0841 41.428 57.0366 41.5252C56.9891 41.6224 56.9654 41.7422 56.9654 41.8848V45.7592ZM57.7428 42.2541V42.7141H55.8121V42.2541H57.7428ZM58.8605 45.7592H58.2611V41.9496C58.2611 41.6839 58.3119 41.4593 58.4134 41.2758C58.5171 41.0922 58.665 40.9529 58.8572 40.8579C59.0494 40.7628 59.2773 40.7153 59.5407 40.7153C59.6984 40.7153 59.8517 40.7348 60.0008 40.7736C60.1498 40.8104 60.3031 40.8568 60.4608 40.9129L60.3571 41.4183C60.2599 41.3794 60.1454 41.3427 60.0137 41.3082C59.882 41.2714 59.7394 41.2531 59.5861 41.2531C59.3291 41.2531 59.1434 41.3114 59.0289 41.428C58.9166 41.5425 58.8605 41.7163 58.8605 41.9496V45.7592ZM59.5764 42.2541V42.7141H57.7072V42.2541H59.5764ZM60.7556 42.2541V45.7592H60.1562V42.2541H60.7556Z"
    fill="black" />
  <path d="M62.186 40.7834V45.7592H61.5834V40.7834H62.186Z" fill="black" />
  <path
    d="M63.6002 42.2541V45.7592H62.9977V42.2541H63.6002ZM62.9523 41.3244C62.9523 41.2272 62.9815 41.1451 63.0398 41.0782C63.1002 41.0112 63.1888 40.9777 63.3054 40.9777C63.4199 40.9777 63.5073 41.0112 63.5678 41.0782C63.6304 41.1451 63.6618 41.2272 63.6618 41.3244C63.6618 41.4172 63.6304 41.4971 63.5678 41.5641C63.5073 41.6289 63.4199 41.6613 63.3054 41.6613C63.1888 41.6613 63.1002 41.6289 63.0398 41.5641C62.9815 41.4971 62.9523 41.4172 62.9523 41.3244Z"
    fill="black" />
  <path
    d="M66.4301 45.1599V43.3555C66.4301 43.2173 66.402 43.0974 66.3459 42.9959C66.2919 42.8923 66.2098 42.8124 66.0997 42.7562C65.9895 42.7001 65.8535 42.672 65.6915 42.672C65.5403 42.672 65.4075 42.6979 65.293 42.7497C65.1807 42.8016 65.0922 42.8696 65.0274 42.9538C64.9648 43.038 64.9335 43.1287 64.9335 43.2259H64.3341C64.3341 43.1007 64.3665 42.9765 64.4313 42.8534C64.4961 42.7303 64.589 42.6191 64.7099 42.5197C64.833 42.4182 64.9799 42.3383 65.1505 42.28C65.3233 42.2195 65.5155 42.1893 65.7271 42.1893C65.982 42.1893 66.2066 42.2325 66.4009 42.3189C66.5975 42.4053 66.7508 42.5359 66.8609 42.7109C66.9732 42.8836 67.0294 43.1007 67.0294 43.362V44.9947C67.0294 45.1113 67.0391 45.2355 67.0586 45.3672C67.0802 45.499 67.1115 45.6124 67.1525 45.7074V45.7592H66.5273C66.497 45.6901 66.4733 45.5983 66.456 45.4839C66.4387 45.3672 66.4301 45.2593 66.4301 45.1599ZM66.5338 43.6341L66.5402 44.0552H65.9345C65.7638 44.0552 65.6116 44.0693 65.4777 44.0974C65.3438 44.1233 65.2315 44.1632 65.1408 44.2172C65.0501 44.2712 64.981 44.3392 64.9335 44.4213C64.8859 44.5012 64.8622 44.5952 64.8622 44.7031C64.8622 44.8133 64.887 44.9137 64.9367 45.0044C64.9864 45.0951 65.0609 45.1675 65.1602 45.2215C65.2617 45.2733 65.3859 45.2992 65.5328 45.2992C65.7163 45.2992 65.8783 45.2603 66.0187 45.1826C66.1591 45.1048 66.2703 45.0098 66.3523 44.8975C66.4366 44.7852 66.4819 44.6761 66.4884 44.5703L66.7443 44.8586C66.7292 44.9493 66.6882 45.0498 66.6212 45.1599C66.5543 45.27 66.4646 45.3759 66.3523 45.4774C66.2422 45.5767 66.1105 45.6599 65.9571 45.7268C65.806 45.7916 65.6353 45.824 65.4453 45.824C65.2077 45.824 64.9993 45.7776 64.8201 45.6847C64.643 45.5918 64.5048 45.4677 64.4054 45.3122C64.3082 45.1545 64.2596 44.9785 64.2596 44.7841C64.2596 44.5962 64.2964 44.431 64.3698 44.2885C64.4432 44.1438 64.549 44.0239 64.6873 43.9289C64.8255 43.8317 64.9918 43.7583 65.1861 43.7086C65.3805 43.6589 65.5975 43.6341 65.8373 43.6341H66.5338Z"
    fill="black" />
  <path
    d="M69.2405 42.2541V42.7141H67.3454V42.2541H69.2405ZM67.9869 41.4021H68.5862V44.891C68.5862 45.0098 68.6045 45.0994 68.6412 45.1599C68.678 45.2204 68.7255 45.2603 68.7838 45.2798C68.8421 45.2992 68.9047 45.3089 68.9717 45.3089C69.0213 45.3089 69.0732 45.3046 69.1272 45.296C69.1833 45.2852 69.2254 45.2765 69.2535 45.27L69.2567 45.7592C69.2092 45.7743 69.1466 45.7884 69.0689 45.8013C68.9933 45.8164 68.9015 45.824 68.7935 45.824C68.6466 45.824 68.5117 45.7948 68.3886 45.7365C68.2655 45.6782 68.1672 45.581 68.0938 45.445C68.0225 45.3068 67.9869 45.121 67.9869 44.8878V41.4021Z"
    fill="black" />
  <path
    d="M71.199 45.824C70.955 45.824 70.7336 45.783 70.5349 45.7009C70.3384 45.6167 70.1689 45.499 70.0263 45.3478C69.8859 45.1966 69.778 45.0174 69.7024 44.81C69.6268 44.6027 69.589 44.376 69.589 44.1297V43.9937C69.589 43.7086 69.6311 43.4549 69.7153 43.2324C69.7996 43.0078 69.914 42.8178 70.0587 42.6623C70.2034 42.5068 70.3675 42.3891 70.5511 42.3092C70.7347 42.2293 70.9247 42.1893 71.1213 42.1893C71.3718 42.1893 71.5877 42.2325 71.7692 42.3189C71.9527 42.4053 72.1028 42.5262 72.2194 42.6817C72.3361 42.835 72.4225 43.0164 72.4786 43.2259C72.5348 43.4333 72.5628 43.66 72.5628 43.9062V44.1751H69.9453V43.6859H71.9635V43.6406C71.9549 43.4851 71.9225 43.3339 71.8663 43.1871C71.8124 43.0402 71.726 42.9193 71.6072 42.8242C71.4884 42.7292 71.3264 42.6817 71.1213 42.6817C70.9852 42.6817 70.8599 42.7109 70.7455 42.7692C70.631 42.8253 70.5328 42.9095 70.4507 43.0218C70.3686 43.1341 70.3049 43.2713 70.2596 43.4333C70.2142 43.5952 70.1915 43.782 70.1915 43.9937V44.1297C70.1915 44.296 70.2142 44.4526 70.2596 44.5995C70.3071 44.7442 70.3751 44.8716 70.4636 44.9817C70.5544 45.0919 70.6634 45.1783 70.7908 45.2409C70.9204 45.3035 71.0673 45.3348 71.2314 45.3348C71.4431 45.3348 71.6223 45.2916 71.7692 45.2053C71.916 45.1189 72.0445 45.0033 72.1547 44.8586L72.5175 45.1469C72.4419 45.2614 72.3458 45.3705 72.2292 45.4741C72.1125 45.5778 71.9689 45.662 71.7983 45.7268C71.6299 45.7916 71.4301 45.824 71.199 45.824Z"
    fill="black" />
  <path
    d="M76.3405 43.9095H75.0803V43.4009H76.3405C76.5845 43.4009 76.7821 43.362 76.9333 43.2842C77.0845 43.2065 77.1946 43.0985 77.2637 42.9603C77.335 42.8221 77.3706 42.6644 77.3706 42.4873C77.3706 42.3254 77.335 42.1731 77.2637 42.0306C77.1946 41.888 77.0845 41.7736 76.9333 41.6872C76.7821 41.5986 76.5845 41.5544 76.3405 41.5544H75.2261V45.7592H74.6009V41.0425H76.3405C76.6968 41.0425 76.9981 41.1041 77.2443 41.2272C77.4905 41.3503 77.6773 41.5209 77.8047 41.739C77.9321 41.955 77.9958 42.2023 77.9958 42.4809C77.9958 42.7832 77.9321 43.0413 77.8047 43.2551C77.6773 43.4689 77.4905 43.6319 77.2443 43.7443C76.9981 43.8544 76.6968 43.9095 76.3405 43.9095Z"
    fill="black" />
  <path
    d="M79.0958 42.8048V45.7592H78.4965V42.2541H79.0796L79.0958 42.8048ZM80.1908 42.2347L80.1875 42.7918C80.1379 42.781 80.0904 42.7746 80.045 42.7724C80.0018 42.7681 79.9521 42.7659 79.896 42.7659C79.7578 42.7659 79.6358 42.7875 79.5299 42.8307C79.4241 42.8739 79.3345 42.9344 79.2611 43.0121C79.1876 43.0899 79.1293 43.1827 79.0861 43.2907C79.0451 43.3965 79.0181 43.5132 79.0051 43.6406L78.8367 43.7378C78.8367 43.5261 78.8572 43.3274 78.8982 43.1417C78.9414 42.956 79.0073 42.7918 79.0958 42.6493C79.1844 42.5046 79.2967 42.3923 79.4327 42.3124C79.571 42.2303 79.7351 42.1893 79.9251 42.1893C79.9683 42.1893 80.018 42.1947 80.0742 42.2055C80.1303 42.2141 80.1692 42.2239 80.1908 42.2347Z"
    fill="black" />
  <path
    d="M80.3222 44.0455V43.971C80.3222 43.7183 80.3589 43.484 80.4323 43.268C80.5057 43.0499 80.6116 42.861 80.7498 42.7011C80.888 42.5392 81.0554 42.4139 81.2519 42.3254C81.4484 42.2347 81.6687 42.1893 81.9128 42.1893C82.159 42.1893 82.3803 42.2347 82.5769 42.3254C82.7756 42.4139 82.944 42.5392 83.0822 42.7011C83.2226 42.861 83.3295 43.0499 83.4029 43.268C83.4764 43.484 83.5131 43.7183 83.5131 43.971V44.0455C83.5131 44.2982 83.4764 44.5325 83.4029 44.7485C83.3295 44.9645 83.2226 45.1534 83.0822 45.3154C82.944 45.4752 82.7766 45.6005 82.5801 45.6912C82.3857 45.7797 82.1654 45.824 81.9192 45.824C81.673 45.824 81.4517 45.7797 81.2551 45.6912C81.0586 45.6005 80.8902 45.4752 80.7498 45.3154C80.6116 45.1534 80.5057 44.9645 80.4323 44.7485C80.3589 44.5325 80.3222 44.2982 80.3222 44.0455ZM80.9215 43.971V44.0455C80.9215 44.2205 80.942 44.3857 80.983 44.5412C81.0241 44.6945 81.0856 44.8306 81.1677 44.9493C81.2519 45.0681 81.3567 45.1621 81.4819 45.2312C81.6072 45.2981 81.753 45.3316 81.9192 45.3316C82.0834 45.3316 82.227 45.2981 82.3501 45.2312C82.4754 45.1621 82.579 45.0681 82.6611 44.9493C82.7432 44.8306 82.8047 44.6945 82.8457 44.5412C82.8889 44.3857 82.9105 44.2205 82.9105 44.0455V43.971C82.9105 43.7982 82.8889 43.6352 82.8457 43.4819C82.8047 43.3264 82.7421 43.1892 82.6578 43.0704C82.5758 42.9495 82.4721 42.8545 82.3469 42.7854C82.2238 42.7163 82.0791 42.6817 81.9128 42.6817C81.7486 42.6817 81.6039 42.7163 81.4787 42.7854C81.3556 42.8545 81.2519 42.9495 81.1677 43.0704C81.0856 43.1892 81.0241 43.3264 80.983 43.4819C80.942 43.6352 80.9215 43.7982 80.9215 43.971Z"
    fill="black" />
  <path
    d="M86.3365 42.2541H86.8807V45.6847C86.8807 45.9935 86.8181 46.257 86.6928 46.4751C86.5676 46.6933 86.3926 46.8585 86.168 46.9708C85.9456 47.0852 85.6886 47.1425 85.397 47.1425C85.2761 47.1425 85.1335 47.123 84.9694 47.0842C84.8074 47.0474 84.6476 46.9837 84.49 46.893C84.3345 46.8045 84.2038 46.6846 84.098 46.5334L84.4122 46.1771C84.5591 46.3542 84.7124 46.4773 84.8722 46.5464C85.0342 46.6155 85.194 46.6501 85.3517 46.6501C85.5417 46.6501 85.7059 46.6144 85.8441 46.5432C85.9823 46.4719 86.0892 46.3661 86.1648 46.2257C86.2425 46.0875 86.2814 45.9169 86.2814 45.7139V43.0251L86.3365 42.2541ZM83.9231 44.0455V43.9775C83.9231 43.7097 83.9544 43.4667 84.017 43.2486C84.0818 43.0283 84.1736 42.8394 84.2924 42.6817C84.4133 42.524 84.5591 42.4031 84.7297 42.3189C84.9003 42.2325 85.0925 42.1893 85.3063 42.1893C85.5266 42.1893 85.7188 42.2282 85.8829 42.3059C86.0492 42.3815 86.1896 42.4927 86.3041 42.6396C86.4207 42.7843 86.5125 42.9592 86.5794 43.1644C86.6464 43.3696 86.6928 43.6017 86.7187 43.8609V44.1589C86.695 44.4159 86.6485 44.647 86.5794 44.8522C86.5125 45.0573 86.4207 45.2323 86.3041 45.377C86.1896 45.5216 86.0492 45.6329 85.8829 45.7106C85.7167 45.7862 85.5223 45.824 85.2998 45.824C85.0904 45.824 84.9003 45.7797 84.7297 45.6912C84.5612 45.6026 84.4165 45.4785 84.2956 45.3186C84.1747 45.1588 84.0818 44.9709 84.017 44.755C83.9544 44.5368 83.9231 44.3004 83.9231 44.0455ZM84.5224 43.9775V44.0455C84.5224 44.2205 84.5396 44.3846 84.5742 44.5379C84.6109 44.6913 84.666 44.8262 84.7394 44.9429C84.815 45.0595 84.9111 45.1513 85.0277 45.2182C85.1443 45.283 85.2836 45.3154 85.4456 45.3154C85.6443 45.3154 85.8084 45.2733 85.938 45.1891C86.0676 45.1048 86.1702 44.9936 86.2458 44.8554C86.3235 44.7172 86.384 44.5671 86.4272 44.4051V43.6244C86.4034 43.5056 86.3667 43.3911 86.317 43.281C86.2695 43.1687 86.2069 43.0694 86.1292 42.983C86.0536 42.8944 85.9596 42.8242 85.8473 42.7724C85.735 42.7206 85.6033 42.6947 85.4521 42.6947C85.288 42.6947 85.1465 42.7292 85.0277 42.7983C84.9111 42.8653 84.815 42.9581 84.7394 43.0769C84.666 43.1935 84.6109 43.3296 84.5742 43.4851C84.5396 43.6384 84.5224 43.8026 84.5224 43.9775Z"
    fill="black" />
  <path
    d="M88.1913 42.8048V45.7592H87.592V42.2541H88.1751L88.1913 42.8048ZM89.2862 42.2347L89.283 42.7918C89.2333 42.781 89.1858 42.7746 89.1404 42.7724C89.0973 42.7681 89.0476 42.7659 88.9914 42.7659C88.8532 42.7659 88.7312 42.7875 88.6254 42.8307C88.5195 42.8739 88.4299 42.9344 88.3565 43.0121C88.2831 43.0899 88.2248 43.1827 88.1816 43.2907C88.1405 43.3965 88.1135 43.5132 88.1006 43.6406L87.9321 43.7378C87.9321 43.5261 87.9526 43.3274 87.9937 43.1417C88.0369 42.956 88.1027 42.7918 88.1913 42.6493C88.2798 42.5046 88.3921 42.3923 88.5282 42.3124C88.6664 42.2303 88.8305 42.1893 89.0206 42.1893C89.0638 42.1893 89.1135 42.1947 89.1696 42.2055C89.2258 42.2141 89.2646 42.2239 89.2862 42.2347Z"
    fill="black" />
  <path
    d="M91.5784 45.1599V43.3555C91.5784 43.2173 91.5503 43.0974 91.4941 42.9959C91.4401 42.8923 91.3581 42.8124 91.2479 42.7562C91.1378 42.7001 91.0017 42.672 90.8398 42.672C90.6886 42.672 90.5558 42.6979 90.4413 42.7497C90.329 42.8016 90.2404 42.8696 90.1757 42.9538C90.113 43.038 90.0817 43.1287 90.0817 43.2259H89.4824C89.4824 43.1007 89.5148 42.9765 89.5796 42.8534C89.6444 42.7303 89.7372 42.6191 89.8582 42.5197C89.9813 42.4182 90.1281 42.3383 90.2988 42.28C90.4715 42.2195 90.6637 42.1893 90.8754 42.1893C91.1302 42.1893 91.3548 42.2325 91.5492 42.3189C91.7457 42.4053 91.8991 42.5359 92.0092 42.7109C92.1215 42.8836 92.1777 43.1007 92.1777 43.362V44.9947C92.1777 45.1113 92.1874 45.2355 92.2068 45.3672C92.2284 45.499 92.2597 45.6124 92.3008 45.7074V45.7592H91.6755C91.6453 45.6901 91.6215 45.5983 91.6043 45.4839C91.587 45.3672 91.5784 45.2593 91.5784 45.1599ZM91.682 43.6341L91.6885 44.0552H91.0827C90.9121 44.0552 90.7598 44.0693 90.6259 44.0974C90.492 44.1233 90.3797 44.1632 90.289 44.2172C90.1983 44.2712 90.1292 44.3392 90.0817 44.4213C90.0342 44.5012 90.0104 44.5952 90.0104 44.7031C90.0104 44.8133 90.0353 44.9137 90.085 45.0044C90.1346 45.0951 90.2091 45.1675 90.3085 45.2215C90.41 45.2733 90.5342 45.2992 90.681 45.2992C90.8646 45.2992 91.0266 45.2603 91.1669 45.1826C91.3073 45.1048 91.4185 45.0098 91.5006 44.8975C91.5848 44.7852 91.6302 44.6761 91.6367 44.5703L91.8926 44.8586C91.8775 44.9493 91.8364 45.0498 91.7695 45.1599C91.7025 45.27 91.6129 45.3759 91.5006 45.4774C91.3905 45.5767 91.2587 45.6599 91.1054 45.7268C90.9542 45.7916 90.7836 45.824 90.5936 45.824C90.356 45.824 90.1476 45.7776 89.9683 45.6847C89.7912 45.5918 89.653 45.4677 89.5537 45.3122C89.4565 45.1545 89.4079 44.9785 89.4079 44.7841C89.4079 44.5962 89.4446 44.431 89.518 44.2885C89.5915 44.1438 89.6973 44.0239 89.8355 43.9289C89.9737 43.8317 90.14 43.7583 90.3344 43.7086C90.5288 43.6589 90.7458 43.6341 90.9855 43.6341H91.682Z"
    fill="black" />
  <path
    d="M93.5174 42.9506V45.7592H92.9148V42.2541H93.485L93.5174 42.9506ZM93.3943 43.8738L93.1157 43.8641C93.1178 43.6244 93.1492 43.403 93.2096 43.2C93.2701 42.9948 93.3597 42.8167 93.4785 42.6655C93.5973 42.5143 93.7452 42.3977 93.9223 42.3156C94.0994 42.2314 94.3046 42.1893 94.5378 42.1893C94.702 42.1893 94.8531 42.2131 94.9913 42.2606C95.1296 42.3059 95.2494 42.3783 95.3509 42.4776C95.4524 42.577 95.5313 42.7044 95.5874 42.8599C95.6436 43.0154 95.6716 43.2033 95.6716 43.4235V45.7592H95.0723V43.4527C95.0723 43.2691 95.041 43.1223 94.9784 43.0121C94.9179 42.902 94.8315 42.8221 94.7192 42.7724C94.6069 42.7206 94.4752 42.6947 94.324 42.6947C94.1469 42.6947 93.999 42.726 93.8802 42.7886C93.7614 42.8512 93.6664 42.9376 93.5951 43.0478C93.5239 43.1579 93.472 43.2842 93.4396 43.4268C93.4094 43.5672 93.3943 43.7162 93.3943 43.8738ZM95.6652 43.5434L95.2635 43.6665C95.2656 43.4743 95.2969 43.2896 95.3574 43.1126C95.42 42.9355 95.5097 42.7778 95.6263 42.6396C95.7451 42.5014 95.8908 42.3923 96.0636 42.3124C96.2364 42.2303 96.434 42.1893 96.6564 42.1893C96.8443 42.1893 97.0106 42.2141 97.1553 42.2638C97.3022 42.3135 97.4253 42.3901 97.5246 42.4938C97.6261 42.5953 97.7028 42.726 97.7546 42.8858C97.8065 43.0456 97.8324 43.2357 97.8324 43.4559V45.7592H97.2298V43.4495C97.2298 43.2529 97.1985 43.1007 97.1359 42.9927C97.0754 42.8825 96.989 42.8059 96.8767 42.7627C96.7666 42.7173 96.6348 42.6947 96.4815 42.6947C96.3498 42.6947 96.2332 42.7173 96.1316 42.7627C96.0301 42.808 95.9448 42.8707 95.8757 42.9506C95.8066 43.0283 95.7537 43.118 95.717 43.2195C95.6824 43.321 95.6652 43.4289 95.6652 43.5434Z"
    fill="black" />
  <path
    d="M60.5277 60.0029V61.2396H54.2411V60.1768L57.2943 56.8467C57.6292 56.4689 57.8933 56.1425 58.0865 55.8677C58.2798 55.5929 58.415 55.346 58.4923 55.127C58.5739 54.9037 58.6147 54.6868 58.6147 54.4764C58.6147 54.1801 58.5589 53.9203 58.4472 53.697C58.3399 53.4694 58.181 53.2912 57.9706 53.1624C57.7602 53.0293 57.5047 52.9627 57.2041 52.9627C56.8563 52.9627 56.5643 53.0379 56.3281 53.1882C56.0919 53.3385 55.9137 53.5467 55.7935 53.813C55.6732 54.0749 55.6131 54.3755 55.6131 54.7147H54.0608C54.0608 54.1694 54.1853 53.6712 54.4344 53.2204C54.6834 52.7652 55.0441 52.4045 55.5165 52.1382C55.9888 51.8677 56.5578 51.7325 57.2234 51.7325C57.8503 51.7325 58.3828 51.8377 58.8208 52.0481C59.2588 52.2585 59.5916 52.5569 59.8192 52.9434C60.0511 53.3299 60.167 53.7872 60.167 54.3154C60.167 54.6074 60.1198 54.8972 60.0253 55.1849C59.9309 55.4726 59.7956 55.7603 59.6195 56.048C59.4478 56.3315 59.2438 56.617 59.0076 56.9047C58.7714 57.1881 58.5116 57.4758 58.2282 57.7678L56.1993 60.0029H60.5277Z"
    fill="black" />
  <path
    d="M67.4556 55.7646V57.2976C67.4556 58.0319 67.3826 58.6589 67.2366 59.1785C67.0949 59.6937 66.8888 60.1124 66.6183 60.4345C66.3477 60.7565 66.0235 60.9927 65.6456 61.143C65.272 61.2933 64.8534 61.3685 64.3896 61.3685C64.0203 61.3685 63.6768 61.3212 63.359 61.2267C63.0455 61.1323 62.7621 60.9841 62.5088 60.7823C62.2554 60.5805 62.0386 60.3207 61.8582 60.0029C61.6822 59.6809 61.5448 59.2965 61.446 58.85C61.3515 58.4034 61.3043 57.8859 61.3043 57.2976V55.7646C61.3043 55.026 61.3773 54.4034 61.5233 53.8967C61.6693 53.3857 61.8775 52.9713 62.1481 52.6535C62.4186 52.3315 62.7407 52.0975 63.1143 51.9515C63.4921 51.8055 63.913 51.7325 64.3767 51.7325C64.7503 51.7325 65.0938 51.7797 65.4073 51.8742C65.7251 51.9643 66.0085 52.1082 66.2575 52.3057C66.5109 52.5032 66.7256 52.7609 66.9017 53.0787C67.082 53.3921 67.2194 53.7722 67.3139 54.2187C67.4084 54.661 67.4556 55.1763 67.4556 55.7646ZM65.9033 57.5166V55.5327C65.9033 55.1592 65.8818 54.8307 65.8389 54.5472C65.7959 54.2595 65.7315 54.0169 65.6456 53.8194C65.564 53.6176 65.461 53.4544 65.3365 53.3299C65.2119 53.201 65.0702 53.1087 64.9113 53.0529C64.7525 52.9928 64.5743 52.9627 64.3767 52.9627C64.1363 52.9627 63.9215 53.01 63.7326 53.1044C63.5437 53.1946 63.3848 53.3406 63.256 53.5424C63.1271 53.7442 63.0284 54.0105 62.9597 54.3411C62.8953 54.6675 62.863 55.0647 62.863 55.5327V57.5166C62.863 57.8945 62.8845 58.2273 62.9275 58.515C62.9704 58.8027 63.0348 59.0496 63.1207 59.2557C63.2066 59.4576 63.3096 59.625 63.4299 59.7582C63.5544 59.887 63.6961 59.9815 63.855 60.0416C64.0182 60.1017 64.1964 60.1317 64.3896 60.1317C64.6344 60.1317 64.8512 60.0845 65.0402 59.99C65.2291 59.8956 65.388 59.7453 65.5168 59.5392C65.6456 59.3287 65.7423 59.0561 65.8067 58.7211C65.8711 58.3862 65.9033 57.9847 65.9033 57.5166Z"
    fill="black" />
  <path
    d="M74.7313 60.0029V61.2396H68.4447V60.1768L71.4978 56.8467C71.8328 56.4689 72.0969 56.1425 72.2901 55.8677C72.4833 55.5929 72.6186 55.346 72.6959 55.127C72.7775 54.9037 72.8183 54.6868 72.8183 54.4764C72.8183 54.1801 72.7624 53.9203 72.6508 53.697C72.5434 53.4694 72.3846 53.2912 72.1742 53.1624C71.9637 53.0293 71.7082 52.9627 71.4077 52.9627C71.0598 52.9627 70.7678 53.0379 70.5317 53.1882C70.2955 53.3385 70.1173 53.5467 69.997 53.813C69.8768 54.0749 69.8167 54.3755 69.8167 54.7147H68.2644C68.2644 54.1694 68.3889 53.6712 68.6379 53.2204C68.887 52.7652 69.2477 52.4045 69.7201 52.1382C70.1924 51.8677 70.7614 51.7325 71.427 51.7325C72.0539 51.7325 72.5864 51.8377 73.0244 52.0481C73.4624 52.2585 73.7952 52.5569 74.0228 52.9434C74.2547 53.3299 74.3706 53.7872 74.3706 54.3154C74.3706 54.6074 74.3234 54.8972 74.2289 55.1849C74.1344 55.4726 73.9992 55.7603 73.8231 56.048C73.6513 56.3315 73.4474 56.617 73.2112 56.9047C72.975 57.1881 72.7152 57.4758 72.4318 57.7678L70.4028 60.0029H74.7313Z"
    fill="black" />
  <path d="M79.7848 51.8291V61.2396H78.2325V53.6712L75.933 54.4506V53.1688L79.598 51.8291H79.7848Z" fill="black" />
  <path
    d="M30.6626 12.4357V22.2621H28.9686V12.4357H30.6626ZM34.6715 16.7348V18.0778H30.2307V16.7348H34.6715ZM35.2317 12.4357V13.7855H30.2307V12.4357H35.2317Z"
    fill="black" />
  <path
    d="M35.5459 18.692V18.5367C35.5459 18.0103 35.6224 17.5221 35.7753 17.0722C35.9283 16.6178 36.1488 16.2241 36.4367 15.8911C36.7292 15.5537 37.0846 15.2927 37.5031 15.1083C37.926 14.9193 38.4029 14.8248 38.9338 14.8248C39.4693 14.8248 39.9462 14.9193 40.3646 15.1083C40.7876 15.2927 41.1452 15.5537 41.4377 15.8911C41.7302 16.2241 41.9529 16.6178 42.1058 17.0722C42.2588 17.5221 42.3353 18.0103 42.3353 18.5367V18.692C42.3353 19.2184 42.2588 19.7065 42.1058 20.1565C41.9529 20.6064 41.7302 21.0001 41.4377 21.3375C41.1452 21.6705 40.7898 21.9314 40.3714 22.1204C39.9529 22.3049 39.4783 22.3971 38.9473 22.3971C38.4119 22.3971 37.9328 22.3049 37.5098 22.1204C37.0914 21.9314 36.7359 21.6705 36.4435 21.3375C36.151 21.0001 35.9283 20.6064 35.7753 20.1565C35.6224 19.7065 35.5459 19.2184 35.5459 18.692ZM37.1724 18.5367V18.692C37.1724 19.0204 37.2061 19.3309 37.2736 19.6233C37.3411 19.9158 37.4468 20.1722 37.5908 20.3927C37.7348 20.6131 37.9193 20.7864 38.1442 20.9124C38.3692 21.0383 38.6369 21.1013 38.9473 21.1013C39.2488 21.1013 39.5098 21.0383 39.7302 20.9124C39.9552 20.7864 40.1397 20.6131 40.2836 20.3927C40.4276 20.1722 40.5333 19.9158 40.6008 19.6233C40.6728 19.3309 40.7088 19.0204 40.7088 18.692V18.5367C40.7088 18.2128 40.6728 17.9068 40.6008 17.6189C40.5333 17.3264 40.4254 17.0677 40.2769 16.8427C40.1329 16.6178 39.9484 16.4423 39.7235 16.3163C39.503 16.1859 39.2398 16.1206 38.9338 16.1206C38.6279 16.1206 38.3624 16.1859 38.1375 16.3163C37.917 16.4423 37.7348 16.6178 37.5908 16.8427C37.4468 17.0677 37.3411 17.3264 37.2736 17.6189C37.2061 17.9068 37.1724 18.2128 37.1724 18.5367Z"
    fill="black" />
  <path
    d="M44.9172 16.3501V22.2621H43.2907V14.9598H44.8429L44.9172 16.3501ZM47.1511 14.9126L47.1376 16.4243C47.0386 16.4063 46.9306 16.3928 46.8136 16.3838C46.7011 16.3748 46.5887 16.3703 46.4762 16.3703C46.1972 16.3703 45.952 16.4108 45.7405 16.4918C45.5291 16.5683 45.3514 16.6808 45.2074 16.8292C45.0679 16.9732 44.9599 17.1487 44.8834 17.3557C44.8069 17.5626 44.7619 17.7943 44.7485 18.0508L44.3773 18.0778C44.3773 17.6189 44.4223 17.1937 44.5122 16.8023C44.6022 16.4108 44.7372 16.0666 44.9172 15.7697C45.1016 15.4727 45.3311 15.241 45.6056 15.0745C45.8845 14.9081 46.2062 14.8248 46.5707 14.8248C46.6696 14.8248 46.7754 14.8338 46.8879 14.8518C47.0048 14.8698 47.0926 14.8901 47.1511 14.9126Z"
    fill="black" />
  <path
    d="M50.8398 22.3971C50.2999 22.3971 49.8117 22.3094 49.3752 22.1339C48.9433 21.9539 48.5744 21.7042 48.2684 21.3848C47.967 21.0653 47.7353 20.6896 47.5733 20.2577C47.4113 19.8258 47.3303 19.3601 47.3303 18.8607V18.5907C47.3303 18.0193 47.4136 17.5019 47.58 17.0385C47.7465 16.575 47.9782 16.1791 48.2752 15.8507C48.5721 15.5177 48.9231 15.2635 49.328 15.088C49.7329 14.9126 50.1716 14.8248 50.644 14.8248C51.166 14.8248 51.6226 14.9126 52.0141 15.088C52.4055 15.2635 52.7295 15.511 52.9859 15.8304C53.2469 16.1454 53.4404 16.521 53.5663 16.9575C53.6968 17.3939 53.7621 17.8753 53.7621 18.4017V19.0969H48.1199V17.9293H52.1558V17.8011C52.1468 17.5086 52.0883 17.2342 51.9803 16.9777C51.8769 16.7213 51.7171 16.5143 51.5012 16.3568C51.2852 16.1993 50.9972 16.1206 50.6373 16.1206C50.3673 16.1206 50.1266 16.1791 49.9152 16.2961C49.7082 16.4086 49.535 16.5728 49.3955 16.7888C49.256 17.0047 49.148 17.2657 49.0715 17.5716C48.9996 17.8731 48.9636 18.2128 48.9636 18.5907V18.8607C48.9636 19.1801 49.0063 19.4771 49.0918 19.7515C49.1818 20.0215 49.3123 20.2577 49.4832 20.4602C49.6542 20.6626 49.8612 20.8224 50.1041 20.9393C50.3471 21.0518 50.6238 21.1081 50.9342 21.1081C51.3257 21.1081 51.6744 21.0293 51.9803 20.8719C52.2863 20.7144 52.5517 20.4917 52.7767 20.2037L53.6338 21.0338C53.4763 21.2633 53.2716 21.4838 53.0197 21.6952C52.7677 21.9022 52.4595 22.0709 52.0951 22.2014C51.7351 22.3319 51.3167 22.3971 50.8398 22.3971Z"
    fill="black" />
  <path
    d="M55.858 14.9598L57.2483 17.3827L58.6656 14.9598H60.454L58.2404 18.5435L60.5418 22.2621H58.7533L57.2685 19.738L55.7838 22.2621H53.9885L56.2832 18.5435L54.0763 14.9598H55.858Z"
    fill="black" />
  <path d="M68.0609 12.4357V22.2621H66.3804V12.4357H68.0609ZM71.1451 12.4357V13.7855H63.3231V12.4357H71.1451Z"
    fill="black" />
  <path
    d="M73.0116 16.3501V22.2621H71.3851V14.9598H72.9374L73.0116 16.3501ZM75.2455 14.9126L75.232 16.4243C75.133 16.4063 75.025 16.3928 74.9081 16.3838C74.7956 16.3748 74.6831 16.3703 74.5706 16.3703C74.2917 16.3703 74.0465 16.4108 73.835 16.4918C73.6235 16.5683 73.4458 16.6808 73.3018 16.8292C73.1623 16.9732 73.0544 17.1487 72.9779 17.3557C72.9014 17.5626 72.8564 17.7943 72.8429 18.0508L72.4717 18.0778C72.4717 17.6189 72.5167 17.1937 72.6067 16.8023C72.6967 16.4108 72.8316 16.0666 73.0116 15.7697C73.1961 15.4727 73.4255 15.241 73.7 15.0745C73.979 14.9081 74.3007 14.8248 74.6651 14.8248C74.7641 14.8248 74.8698 14.8338 74.9823 14.8518C75.0993 14.8698 75.187 14.8901 75.2455 14.9126Z"
    fill="black" />
  <path
    d="M79.7238 20.7976V17.3152C79.7238 17.0542 79.6766 16.8292 79.5821 16.6403C79.4876 16.4513 79.3436 16.3051 79.1502 16.2016C78.9612 16.0981 78.7227 16.0464 78.4348 16.0464C78.1693 16.0464 77.9399 16.0914 77.7464 16.1814C77.5529 16.2713 77.4022 16.3928 77.2942 16.5458C77.1862 16.6988 77.1322 16.872 77.1322 17.0655H75.5125C75.5125 16.7775 75.5822 16.4986 75.7217 16.2286C75.8612 15.9586 76.0637 15.7179 76.3291 15.5065C76.5946 15.295 76.9118 15.1285 77.2807 15.007C77.6497 14.8856 78.0636 14.8248 78.5225 14.8248C79.0714 14.8248 79.5574 14.9171 79.9803 15.1015C80.4077 15.286 80.7429 15.5649 80.9859 15.9384C81.2333 16.3073 81.3571 16.7708 81.3571 17.3287V20.5749C81.3571 20.9079 81.3796 21.2071 81.4246 21.4725C81.4741 21.7335 81.5438 21.9607 81.6338 22.1542V22.2621H79.9668C79.8903 22.0867 79.8296 21.8639 79.7846 21.594C79.7441 21.3195 79.7238 21.0541 79.7238 20.7976ZM79.96 17.8213L79.9735 18.8269H78.806C78.5045 18.8269 78.2391 18.8562 78.0096 18.9147C77.7801 18.9687 77.5889 19.0496 77.4359 19.1576C77.283 19.2656 77.1682 19.3961 77.0917 19.5491C77.0153 19.702 76.977 19.8753 76.977 20.0687C76.977 20.2622 77.022 20.4399 77.112 20.6019C77.202 20.7594 77.3325 20.8831 77.5034 20.9731C77.6789 21.0631 77.8904 21.1081 78.1378 21.1081C78.4708 21.1081 78.761 21.0406 79.0084 20.9056C79.2604 20.7661 79.4584 20.5974 79.6023 20.3994C79.7463 20.197 79.8228 20.0057 79.8318 19.8258L80.3582 20.5479C80.3042 20.7324 80.212 20.9303 80.0815 21.1418C79.951 21.3533 79.7801 21.5557 79.5686 21.7492C79.3616 21.9382 79.1119 22.0934 78.8195 22.2149C78.5315 22.3364 78.1986 22.3971 77.8206 22.3971C77.3437 22.3971 76.9185 22.3026 76.5451 22.1137C76.1716 21.9202 75.8792 21.6615 75.6677 21.3375C75.4563 21.0091 75.3505 20.6379 75.3505 20.224C75.3505 19.837 75.4225 19.4951 75.5665 19.1981C75.715 18.8967 75.9309 18.6447 76.2144 18.4422C76.5023 18.2398 76.8533 18.0868 77.2672 17.9833C77.6812 17.8753 78.1536 17.8213 78.6845 17.8213H79.96Z"
    fill="black" />
  <path
    d="M87.0974 20.7504V11.8958H88.7307V22.2621H87.2527L87.0974 20.7504ZM82.3462 18.692V18.5502C82.3462 17.9968 82.4114 17.4929 82.5419 17.0385C82.6724 16.5795 82.8614 16.1859 83.1088 15.8574C83.3563 15.5245 83.6577 15.2702 84.0132 15.0948C84.3686 14.9148 84.7691 14.8248 85.2145 14.8248C85.6554 14.8248 86.0424 14.9103 86.3753 15.0813C86.7083 15.2522 86.9917 15.4975 87.2257 15.8169C87.4596 16.1319 87.6464 16.5098 87.7858 16.9507C87.9253 17.3872 88.0243 17.8731 88.0828 18.4085V18.8607C88.0243 19.3826 87.9253 19.8595 87.7858 20.2914C87.6464 20.7234 87.4596 21.0968 87.2257 21.4118C86.9917 21.7267 86.706 21.9697 86.3686 22.1407C86.0356 22.3116 85.6464 22.3971 85.201 22.3971C84.7601 22.3971 84.3619 22.3049 84.0064 22.1204C83.6555 21.9359 83.3563 21.6772 83.1088 21.3443C82.8614 21.0113 82.6724 20.6199 82.5419 20.17C82.4114 19.7155 82.3462 19.2229 82.3462 18.692ZM83.9727 18.5502V18.692C83.9727 19.0249 84.0019 19.3354 84.0604 19.6233C84.1234 19.9113 84.2201 20.1655 84.3506 20.3859C84.4811 20.6019 84.6498 20.7729 84.8568 20.8989C85.0683 21.0203 85.3202 21.0811 85.6127 21.0811C85.9816 21.0811 86.2853 21.0001 86.5238 20.8381C86.7622 20.6761 86.949 20.4579 87.0839 20.1835C87.2234 19.9045 87.3179 19.5941 87.3674 19.2521V18.0306C87.3404 17.7651 87.2842 17.5176 87.1987 17.2882C87.1177 17.0587 87.0075 16.8585 86.868 16.6875C86.7285 16.512 86.5553 16.3771 86.3483 16.2826C86.1458 16.1836 85.9051 16.1341 85.6262 16.1341C85.3292 16.1341 85.0773 16.1971 84.8703 16.3231C84.6633 16.4491 84.4924 16.6223 84.3574 16.8427C84.2269 17.0632 84.1302 17.3197 84.0672 17.6121C84.0042 17.9046 83.9727 18.2173 83.9727 18.5502Z"
    fill="black" />
  <path
    d="M93.236 22.3971C92.6961 22.3971 92.2079 22.3094 91.7715 22.1339C91.3395 21.9539 90.9706 21.7042 90.6646 21.3848C90.3632 21.0653 90.1315 20.6896 89.9695 20.2577C89.8075 19.8258 89.7266 19.3601 89.7266 18.8607V18.5907C89.7266 18.0193 89.8098 17.5019 89.9763 17.0385C90.1427 16.575 90.3745 16.1791 90.6714 15.8507C90.9684 15.5177 91.3193 15.2635 91.7242 15.088C92.1292 14.9126 92.5678 14.8248 93.0403 14.8248C93.5622 14.8248 94.0189 14.9126 94.4103 15.088C94.8018 15.2635 95.1257 15.511 95.3822 15.8304C95.6431 16.1454 95.8366 16.521 95.9626 16.9575C96.093 17.3939 96.1583 17.8753 96.1583 18.4017V19.0969H90.5162V17.9293H94.552V17.8011C94.543 17.5086 94.4846 17.2342 94.3766 16.9777C94.2731 16.7213 94.1134 16.5143 93.8974 16.3568C93.6814 16.1993 93.3935 16.1206 93.0335 16.1206C92.7636 16.1206 92.5229 16.1791 92.3114 16.2961C92.1044 16.4086 91.9312 16.5728 91.7917 16.7888C91.6522 17.0047 91.5443 17.2657 91.4678 17.5716C91.3958 17.8731 91.3598 18.2128 91.3598 18.5907V18.8607C91.3598 19.1801 91.4025 19.4771 91.488 19.7515C91.578 20.0215 91.7085 20.2577 91.8795 20.4602C92.0504 20.6626 92.2574 20.8224 92.5004 20.9393C92.7433 21.0518 93.02 21.1081 93.3305 21.1081C93.7219 21.1081 94.0706 21.0293 94.3766 20.8719C94.6825 20.7144 94.948 20.4917 95.1729 20.2037L96.0301 21.0338C95.8726 21.2633 95.6679 21.4838 95.4159 21.6952C95.1639 21.9022 94.8557 22.0709 94.4913 22.2014C94.1314 22.3319 93.7129 22.3971 93.236 22.3971Z"
    fill="black" />
  <path
    d="M98.6457 16.3501V22.2621H97.0192V14.9598H98.5714L98.6457 16.3501ZM100.88 14.9126L100.866 16.4243C100.767 16.4063 100.659 16.3928 100.542 16.3838C100.43 16.3748 100.317 16.3703 100.205 16.3703C99.9257 16.3703 99.6805 16.4108 99.469 16.4918C99.2576 16.5683 99.0798 16.6808 98.9359 16.8292C98.7964 16.9732 98.6884 17.1487 98.6119 17.3557C98.5354 17.5626 98.4904 17.7943 98.4769 18.0508L98.1058 18.0778C98.1058 17.6189 98.1507 17.1937 98.2407 16.8023C98.3307 16.4108 98.4657 16.0666 98.6457 15.7697C98.8301 15.4727 99.0596 15.241 99.3341 15.0745C99.613 14.9081 99.9347 14.8248 100.299 14.8248C100.398 14.8248 100.504 14.8338 100.616 14.8518C100.733 14.8698 100.821 14.8901 100.88 14.9126Z"
    fill="black" />
  <path
    d="M105.581 20.2847C105.581 20.1227 105.54 19.9765 105.459 19.846C105.378 19.711 105.223 19.5896 104.993 19.4816C104.768 19.3736 104.436 19.2746 103.995 19.1846C103.608 19.0991 103.252 18.9979 102.928 18.8809C102.609 18.7594 102.334 18.6132 102.105 18.4422C101.875 18.2713 101.698 18.0688 101.572 17.8348C101.446 17.6009 101.383 17.3309 101.383 17.025C101.383 16.728 101.448 16.4468 101.578 16.1814C101.709 15.9159 101.896 15.6819 102.139 15.4795C102.382 15.277 102.676 15.1173 103.023 15.0003C103.374 14.8833 103.765 14.8248 104.197 14.8248C104.809 14.8248 105.333 14.9283 105.77 15.1353C106.21 15.3377 106.548 15.6144 106.782 15.9654C107.016 16.3118 107.133 16.7033 107.133 17.1397H105.506C105.506 16.9462 105.457 16.7663 105.358 16.5998C105.263 16.4288 105.119 16.2916 104.926 16.1881C104.732 16.0801 104.49 16.0261 104.197 16.0261C103.918 16.0261 103.686 16.0711 103.502 16.1611C103.322 16.2466 103.187 16.3591 103.097 16.4986C103.012 16.638 102.969 16.791 102.969 16.9575C102.969 17.079 102.991 17.1892 103.036 17.2882C103.086 17.3827 103.167 17.4704 103.279 17.5514C103.392 17.6279 103.545 17.6999 103.738 17.7673C103.936 17.8348 104.184 17.9001 104.481 17.9631C105.038 18.08 105.518 18.2308 105.918 18.4152C106.323 18.5952 106.633 18.8292 106.849 19.1171C107.065 19.4006 107.173 19.7605 107.173 20.197C107.173 20.5209 107.104 20.8179 106.964 21.0878C106.829 21.3533 106.631 21.585 106.37 21.783C106.109 21.9764 105.797 22.1272 105.432 22.2351C105.072 22.3431 104.667 22.3971 104.217 22.3971C103.556 22.3971 102.996 22.2801 102.537 22.0462C102.078 21.8077 101.729 21.504 101.491 21.1351C101.257 20.7616 101.14 20.3747 101.14 19.9742H102.712C102.73 20.2757 102.814 20.5164 102.962 20.6964C103.115 20.8719 103.304 21.0001 103.529 21.0811C103.758 21.1576 103.995 21.1958 104.238 21.1958C104.53 21.1958 104.775 21.1576 104.973 21.0811C105.171 21.0001 105.322 20.8921 105.425 20.7571C105.529 20.6176 105.581 20.4602 105.581 20.2847Z"
    fill="black" />
  <path
    d="M31.3848 32.3091C31.3848 32.1067 31.3533 31.9267 31.2903 31.7692C31.2318 31.6117 31.1261 31.4678 30.9731 31.3373C30.8201 31.2068 30.6041 31.0808 30.3252 30.9593C30.0507 30.8334 29.6998 30.7051 29.2723 30.5747C28.8044 30.4307 28.3725 30.271 27.9766 30.0955C27.5851 29.9155 27.2432 29.7085 26.9507 29.4746C26.6583 29.2361 26.431 28.9639 26.2691 28.658C26.1071 28.3475 26.0261 27.9898 26.0261 27.5849C26.0261 27.1844 26.1094 26.82 26.2758 26.4916C26.4468 26.1631 26.6875 25.8797 26.998 25.6412C27.3129 25.3982 27.6841 25.2115 28.1115 25.081C28.539 24.946 29.0114 24.8786 29.5288 24.8786C30.2577 24.8786 30.8853 25.0135 31.4118 25.2835C31.9427 25.5535 32.3499 25.9156 32.6333 26.3701C32.9213 26.8245 33.0652 27.3262 33.0652 27.8751H31.3848C31.3848 27.5511 31.315 27.2654 31.1755 27.018C31.0406 26.766 30.8336 26.568 30.5546 26.4241C30.2802 26.2801 29.9315 26.2081 29.5086 26.2081C29.1081 26.2081 28.7752 26.2688 28.5097 26.3903C28.2443 26.5118 28.0463 26.676 27.9158 26.883C27.7853 27.09 27.7201 27.3239 27.7201 27.5849C27.7201 27.7694 27.7628 27.9381 27.8483 28.091C27.9338 28.2395 28.0643 28.379 28.2398 28.5095C28.4152 28.6355 28.6357 28.7547 28.9012 28.8672C29.1666 28.9797 29.4793 29.0876 29.8393 29.1911C30.3837 29.3531 30.8583 29.5331 31.2633 29.731C31.6682 29.9245 32.0057 30.145 32.2756 30.3924C32.5456 30.6399 32.748 30.9211 32.883 31.236C33.018 31.5465 33.0855 31.8997 33.0855 32.2956C33.0855 32.7096 33.0023 33.083 32.8358 33.416C32.6693 33.7444 32.4308 34.0256 32.1204 34.2596C31.8144 34.489 31.4455 34.6668 31.0136 34.7927C30.5861 34.9142 30.1092 34.975 29.5828 34.975C29.1104 34.975 28.6447 34.912 28.1858 34.786C27.7313 34.66 27.3174 34.4688 26.944 34.2123C26.5705 33.9514 26.2736 33.6274 26.0531 33.2405C25.8326 32.849 25.7224 32.3924 25.7224 31.8704H27.4164C27.4164 32.1899 27.4704 32.4621 27.5784 32.6871C27.6908 32.912 27.8461 33.0965 28.044 33.2405C28.242 33.38 28.4715 33.4834 28.7324 33.5509C28.9979 33.6184 29.2813 33.6522 29.5828 33.6522C29.9787 33.6522 30.3094 33.5959 30.5749 33.4834C30.8448 33.371 31.0473 33.2135 31.1823 33.011C31.3173 32.8085 31.3848 32.5746 31.3848 32.3091Z"
    fill="black" />
  <path
    d="M38.4007 33.119V27.5376H40.0339V34.84H38.4952L38.4007 33.119ZM38.6301 31.6005L39.1768 31.587C39.1768 32.0774 39.1228 32.5296 39.0148 32.9435C38.9068 33.353 38.7404 33.7107 38.5154 34.0166C38.2904 34.3181 38.0025 34.5543 37.6515 34.7252C37.3006 34.8917 36.8799 34.975 36.3895 34.975C36.0341 34.975 35.7079 34.9232 35.4109 34.8197C35.114 34.7162 34.8575 34.5565 34.6415 34.3406C34.4301 34.1246 34.2658 33.8434 34.1489 33.4969C34.0319 33.1505 33.9734 32.7366 33.9734 32.2551V27.5376H35.5999V32.2686C35.5999 32.5341 35.6314 32.7568 35.6944 32.9368C35.7573 33.1123 35.8428 33.254 35.9508 33.362C36.0588 33.4699 36.1848 33.5464 36.3288 33.5914C36.4727 33.6364 36.6257 33.6589 36.7877 33.6589C37.2511 33.6589 37.6156 33.5689 37.881 33.389C38.151 33.2045 38.3422 32.957 38.4547 32.6466C38.5717 32.3361 38.6301 31.9874 38.6301 31.6005Z"
    fill="black" />
  <path
    d="M42.9127 29.0224V34.84H41.2863V27.5376H42.8183L42.9127 29.0224ZM42.6495 30.9188L42.0961 30.9121C42.0961 30.4082 42.1591 29.9425 42.2851 29.5151C42.4111 29.0876 42.5955 28.7164 42.8385 28.4015C43.0815 28.0821 43.3829 27.8368 43.7429 27.6659C44.1073 27.4904 44.528 27.4027 45.0049 27.4027C45.3379 27.4027 45.6416 27.4522 45.916 27.5511C46.195 27.6456 46.4357 27.7963 46.6382 28.0033C46.8451 28.2103 47.0026 28.4757 47.1106 28.7997C47.2231 29.1236 47.2793 29.5151 47.2793 29.974V34.84H45.6528V30.1157C45.6528 29.7603 45.5988 29.4813 45.4908 29.2789C45.3874 29.0764 45.2366 28.9324 45.0387 28.8469C44.8452 28.7569 44.6135 28.712 44.3435 28.712C44.0376 28.712 43.7766 28.7704 43.5606 28.8874C43.3492 29.0044 43.176 29.1641 43.041 29.3666C42.906 29.5691 42.807 29.803 42.744 30.0685C42.681 30.3339 42.6495 30.6174 42.6495 30.9188ZM47.1781 30.4869L46.4154 30.6556C46.4154 30.2147 46.4762 29.7985 46.5977 29.4071C46.7236 29.0112 46.9059 28.6647 47.1443 28.3678C47.3873 28.0663 47.6865 27.8301 48.0419 27.6591C48.3974 27.4881 48.8046 27.4027 49.2635 27.4027C49.6369 27.4027 49.9699 27.4544 50.2623 27.5579C50.5593 27.6569 50.8112 27.8143 51.0182 28.0303C51.2252 28.2463 51.3826 28.5275 51.4906 28.8739C51.5986 29.2159 51.6526 29.6298 51.6526 30.1157V34.84H50.0194V30.109C50.0194 29.74 49.9654 29.4543 49.8574 29.2519C49.7539 29.0494 49.6054 28.9099 49.412 28.8334C49.2185 28.7524 48.9868 28.712 48.7168 28.712C48.4649 28.712 48.2421 28.7592 48.0487 28.8537C47.8597 28.9437 47.7 29.0719 47.5695 29.2384C47.439 29.4003 47.34 29.5871 47.2726 29.7985C47.2096 30.01 47.1781 30.2395 47.1781 30.4869Z"
    fill="black" />
  <path
    d="M54.5382 29.0224V34.84H52.9117V27.5376H54.4437L54.5382 29.0224ZM54.275 30.9188L53.7216 30.9121C53.7216 30.4082 53.7845 29.9425 53.9105 29.5151C54.0365 29.0876 54.221 28.7164 54.4639 28.4015C54.7069 28.0821 55.0084 27.8368 55.3683 27.6659C55.7327 27.4904 56.1534 27.4027 56.6303 27.4027C56.9633 27.4027 57.267 27.4522 57.5415 27.5511C57.8204 27.6456 58.0611 27.7963 58.2636 28.0033C58.4706 28.2103 58.628 28.4757 58.736 28.7997C58.8485 29.1236 58.9047 29.5151 58.9047 29.974V34.84H57.2782V30.1157C57.2782 29.7603 57.2243 29.4813 57.1163 29.2789C57.0128 29.0764 56.8621 28.9324 56.6641 28.8469C56.4706 28.7569 56.2389 28.712 55.969 28.712C55.663 28.712 55.402 28.7704 55.1861 28.8874C54.9746 29.0044 54.8014 29.1641 54.6664 29.3666C54.5314 29.5691 54.4324 29.803 54.3695 30.0685C54.3065 30.3339 54.275 30.6174 54.275 30.9188ZM58.8035 30.4869L58.0409 30.6556C58.0409 30.2147 58.1016 29.7985 58.2231 29.4071C58.3491 29.0112 58.5313 28.6647 58.7698 28.3678C59.0127 28.0663 59.3119 27.8301 59.6674 27.6591C60.0228 27.4881 60.43 27.4027 60.8889 27.4027C61.2624 27.4027 61.5953 27.4544 61.8878 27.5579C62.1847 27.6569 62.4367 27.8143 62.6436 28.0303C62.8506 28.2463 63.0081 28.5275 63.1161 28.8739C63.224 29.2159 63.278 29.6298 63.278 30.1157V34.84H61.6448V30.109C61.6448 29.74 61.5908 29.4543 61.4828 29.2519C61.3793 29.0494 61.2309 28.9099 61.0374 28.8334C60.8439 28.7524 60.6122 28.712 60.3423 28.712C60.0903 28.712 59.8676 28.7592 59.6741 28.8537C59.4851 28.9437 59.3254 29.0719 59.1949 29.2384C59.0645 29.4003 58.9655 29.5871 58.898 29.7985C58.835 30.01 58.8035 30.2395 58.8035 30.4869Z"
    fill="black" />
  <path
    d="M66.2783 27.5376V34.84H64.6451V27.5376H66.2783ZM64.5371 25.6209C64.5371 25.3735 64.6181 25.1688 64.7801 25.0068C64.9466 24.8403 65.176 24.7571 65.4685 24.7571C65.7564 24.7571 65.9836 24.8403 66.1501 25.0068C66.3166 25.1688 66.3998 25.3735 66.3998 25.6209C66.3998 25.8639 66.3166 26.0664 66.1501 26.2283C65.9836 26.3903 65.7564 26.4713 65.4685 26.4713C65.176 26.4713 64.9466 26.3903 64.7801 26.2283C64.6181 26.0664 64.5371 25.8639 64.5371 25.6209Z"
    fill="black" />
  <path
    d="M70.9929 27.5376V28.7254H66.876V27.5376H70.9929ZM68.0638 25.7492H69.6903V32.822C69.6903 33.047 69.7218 33.2202 69.7848 33.3417C69.8523 33.4587 69.9445 33.5374 70.0615 33.5779C70.1785 33.6184 70.3157 33.6387 70.4732 33.6387C70.5857 33.6387 70.6937 33.6319 70.7972 33.6184C70.9006 33.6049 70.9839 33.5914 71.0469 33.5779L71.0536 34.8197C70.9186 34.8602 70.7612 34.8962 70.5812 34.9277C70.4057 34.9592 70.2033 34.975 69.9738 34.975C69.6003 34.975 69.2696 34.9097 68.9817 34.7792C68.6937 34.6443 68.4688 34.426 68.3068 34.1246C68.1448 33.8231 68.0638 33.4227 68.0638 32.9233V25.7492Z"
    fill="black" />
  <path
    d="M73.3588 33.2742L73.352 34.435C73.352 34.894 73.2373 35.3664 73.0078 35.8523C72.7784 36.3382 72.4747 36.7387 72.0967 37.0536L71.2261 36.5475C71.3521 36.345 71.4668 36.1403 71.5703 35.9333C71.6738 35.7263 71.757 35.5059 71.82 35.2719C71.883 35.0379 71.9145 34.7792 71.9145 34.4958V33.2742H73.3588Z"
    fill="black" />
  <path
    d="M80.5539 34.84H78.455L78.4685 33.4969H80.5539C81.1614 33.4969 81.6698 33.3642 82.0792 33.0988C82.4931 32.8333 82.8036 32.4531 83.0106 31.9582C83.222 31.4633 83.3278 30.8739 83.3278 30.19V29.6568C83.3278 29.1259 83.267 28.6557 83.1455 28.2463C83.0286 27.8368 82.8531 27.4926 82.6191 27.2137C82.3897 26.9347 82.1062 26.7233 81.7688 26.5793C81.4358 26.4353 81.0511 26.3633 80.6147 26.3633H78.4145V25.0135H80.6147C81.2671 25.0135 81.8632 25.1238 82.4032 25.3442C82.9431 25.5602 83.4087 25.8729 83.8002 26.2823C84.1961 26.6918 84.4998 27.1822 84.7113 27.7536C84.9228 28.325 85.0285 28.9639 85.0285 29.6703V30.19C85.0285 30.8964 84.9228 31.5353 84.7113 32.1067C84.4998 32.6781 84.1961 33.1685 83.8002 33.5779C83.4042 33.9829 82.9318 34.2956 82.3829 34.516C81.8385 34.732 81.2288 34.84 80.5539 34.84ZM79.3931 25.0135V34.84H77.6992V25.0135H79.3931Z"
    fill="black" />
  <path
    d="M90.5461 33.119V27.5376H92.1794V34.84H90.6406L90.5461 33.119ZM90.7756 31.6005L91.3223 31.587C91.3223 32.0774 91.2683 32.5296 91.1603 32.9435C91.0523 33.353 90.8858 33.7107 90.6609 34.0166C90.4359 34.3181 90.148 34.5543 89.797 34.7252C89.4461 34.8917 89.0254 34.975 88.535 34.975C88.1795 34.975 87.8533 34.9232 87.5564 34.8197C87.2594 34.7162 87.003 34.5565 86.787 34.3406C86.5755 34.1246 86.4113 33.8434 86.2943 33.4969C86.1773 33.1505 86.1188 32.7366 86.1188 32.2551V27.5376H87.7453V32.2686C87.7453 32.5341 87.7768 32.7568 87.8398 32.9368C87.9028 33.1123 87.9883 33.254 88.0963 33.362C88.2043 33.4699 88.3302 33.5464 88.4742 33.5914C88.6182 33.6364 88.7712 33.6589 88.9331 33.6589C89.3966 33.6589 89.761 33.5689 90.0265 33.389C90.2964 33.2045 90.4876 32.957 90.6001 32.6466C90.7171 32.3361 90.7756 31.9874 90.7756 31.6005Z"
    fill="black" />
  <path
    d="M93.4385 24.4736H95.065V33.281L94.9097 34.84H93.4385V24.4736ZM99.8297 31.1213V31.263C99.8297 31.803 99.769 32.3001 99.6475 32.7546C99.5305 33.2045 99.3505 33.5959 99.1076 33.9289C98.8691 34.2618 98.5722 34.5205 98.2167 34.705C97.8658 34.885 97.4586 34.975 96.9951 34.975C96.5407 34.975 96.1448 34.8895 95.8073 34.7185C95.4699 34.5475 95.1864 34.3046 94.957 33.9896C94.732 33.6747 94.5498 33.299 94.4103 32.8625C94.2708 32.4261 94.1718 31.9447 94.1134 31.4183V30.9661C94.1718 30.4352 94.2708 29.9538 94.4103 29.5218C94.5498 29.0854 94.732 28.7097 94.957 28.3948C95.1864 28.0753 95.4676 27.8301 95.8006 27.6591C96.138 27.4881 96.5317 27.4027 96.9817 27.4027C97.4496 27.4027 97.8613 27.4926 98.2167 27.6726C98.5766 27.8526 98.8758 28.109 99.1143 28.442C99.3528 28.7704 99.5305 29.1619 99.6475 29.6163C99.769 30.0707 99.8297 30.5724 99.8297 31.1213ZM98.2032 31.263V31.1213C98.2032 30.7929 98.1762 30.4847 98.1222 30.1967C98.0682 29.9043 97.9782 29.6478 97.8523 29.4273C97.7308 29.2069 97.5643 29.0336 97.3528 28.9077C97.1459 28.7772 96.8872 28.712 96.5767 28.712C96.2888 28.712 96.0413 28.7614 95.8343 28.8604C95.6274 28.9594 95.4541 29.0944 95.3147 29.2654C95.1752 29.4363 95.065 29.6343 94.984 29.8593C94.9075 30.0842 94.8557 30.3272 94.8287 30.5882V31.8097C94.8692 32.1472 94.9547 32.4576 95.0852 32.7411C95.2202 33.02 95.4091 33.245 95.6521 33.416C95.8951 33.5824 96.2078 33.6657 96.5902 33.6657C96.8917 33.6657 97.1459 33.6049 97.3528 33.4834C97.5598 33.362 97.724 33.1932 97.8455 32.9773C97.9715 32.7568 98.0615 32.5003 98.1155 32.2079C98.174 31.9154 98.2032 31.6005 98.2032 31.263Z"
    fill="black" />
  <path
    d="M104.909 33.3755V29.893C104.909 29.6321 104.861 29.4071 104.767 29.2181C104.672 29.0292 104.528 28.8829 104.335 28.7794C104.146 28.676 103.908 28.6242 103.62 28.6242C103.354 28.6242 103.125 28.6692 102.931 28.7592C102.738 28.8492 102.587 28.9707 102.479 29.1236C102.371 29.2766 102.317 29.4498 102.317 29.6433H100.697C100.697 29.3553 100.767 29.0764 100.907 28.8064C101.046 28.5365 101.249 28.2958 101.514 28.0843C101.779 27.8728 102.097 27.7064 102.466 27.5849C102.835 27.4634 103.248 27.4027 103.707 27.4027C104.256 27.4027 104.742 27.4949 105.165 27.6794C105.593 27.8638 105.928 28.1428 106.171 28.5162C106.418 28.8852 106.542 29.3486 106.542 29.9065V33.1527C106.542 33.4857 106.564 33.7849 106.609 34.0504C106.659 34.3113 106.729 34.5385 106.819 34.732V34.84H105.152C105.075 34.6645 105.014 34.4418 104.969 34.1718C104.929 33.8974 104.909 33.6319 104.909 33.3755ZM105.145 30.3992L105.158 31.4048H103.991C103.689 31.4048 103.424 31.434 103.194 31.4925C102.965 31.5465 102.774 31.6275 102.621 31.7355C102.468 31.8435 102.353 31.9739 102.277 32.1269C102.2 32.2799 102.162 32.4531 102.162 32.6466C102.162 32.84 102.207 33.0178 102.297 33.1797C102.387 33.3372 102.517 33.4609 102.688 33.5509C102.864 33.6409 103.075 33.6859 103.323 33.6859C103.656 33.6859 103.946 33.6184 104.193 33.4834C104.445 33.344 104.643 33.1752 104.787 32.9773C104.931 32.7748 105.008 32.5836 105.017 32.4036L105.543 33.1257C105.489 33.3102 105.397 33.5082 105.266 33.7197C105.136 33.9311 104.965 34.1336 104.753 34.3271C104.546 34.516 104.297 34.6713 104.004 34.7927C103.716 34.9142 103.383 34.975 103.005 34.975C102.529 34.975 102.103 34.8805 101.73 34.6915C101.356 34.498 101.064 34.2393 100.853 33.9154C100.641 33.5869 100.535 33.2157 100.535 32.8018C100.535 32.4149 100.607 32.0729 100.751 31.776C100.9 31.4745 101.116 31.2226 101.399 31.0201C101.687 30.8176 102.038 30.6646 102.452 30.5612C102.866 30.4532 103.338 30.3992 103.869 30.3992H105.145Z"
    fill="black" />
  <path
    d="M109.569 27.5376V34.84H107.936V27.5376H109.569ZM107.828 25.6209C107.828 25.3735 107.909 25.1688 108.071 25.0068C108.237 24.8403 108.467 24.7571 108.759 24.7571C109.047 24.7571 109.275 24.8403 109.441 25.0068C109.607 25.1688 109.691 25.3735 109.691 25.6209C109.691 25.8639 109.607 26.0664 109.441 26.2283C109.275 26.3903 109.047 26.4713 108.759 26.4713C108.467 26.4713 108.237 26.3903 108.071 26.2283C107.909 26.0664 107.828 25.8639 107.828 25.6209Z"
    fill="black" />
  <path
    d="M24.4211 61.3188C22.4084 66.0207 13.9822 63.4553 13.9822 63.4553C20.8081 58.9514 24.4211 61.3188 24.4211 61.3188Z"
    fill="#FFDE02" />
  <path
    d="M19.3024 58.5019C17.0628 62.6305 9.04492 58.77 9.04492 58.77C15.9534 55.6437 19.3024 58.5019 19.3024 58.5019Z"
    fill="#FFDE02" />
  <path
    d="M14.0436 2.1785C15.4129 8.20431 13.3672 11.6317 13.3672 11.6317C10.9956 10.0149 14.0436 2.1785 14.0436 2.1785Z"
    fill="#FFDE02" />
  <path
    d="M17.8835 0.0090332C18.1969 5.07385 16.2007 7.631 16.2007 7.631C14.5881 6.06371 17.8835 0.0090332 17.8835 0.0090332Z"
    fill="#FFDE02" />
  <path
    d="M17.7722 6.33594C18.4857 2.54558 24.0496 0.145157 24.0496 0.145157C21.443 5.46981 17.7763 6.33594 17.7763 6.33594"
    fill="#FFDE02" />
  <path
    d="M9.65114 5.06148C13.0002 11.3595 11.2019 15.2653 11.2019 15.2653C7.69616 13.8135 9.65114 5.06148 9.65114 5.06148Z"
    fill="#FFDE02" />
  <path
    d="M6.48388 9.81285C10.5506 15.6943 9.31737 19.9384 9.31737 19.9384C5.73323 19.0021 6.48388 9.81285 6.48388 9.81285Z"
    fill="#FFDE02" />
  <path
    d="M8.00586 24.9867C2.8998 22.8585 4.25262 15.9253 4.25262 15.9253C8.79363 19.2661 8.00586 24.9867 8.00586 24.9867Z"
    fill="#FFDE02" />
  <path
    d="M22.3259 49.9725C22.3259 49.9725 27.5103 57.6399 24.3757 60.8322C24.3757 60.8322 20.7256 57.6564 22.3259 49.9725Z"
    fill="#FFDE02" />
  <path
    d="M19.1292 57.8626C19.1292 57.8626 16.0523 54.3651 19.2735 47.0648C19.2735 47.0648 22.1771 55.4209 19.1292 57.8626Z"
    fill="#FFDE02" />
  <path
    d="M14.9429 53.9526C14.9429 53.9526 12.8435 49.5065 16.8113 44.2519C16.8113 44.2519 18.5105 52.542 14.9429 53.9526Z"
    fill="#FFDE02" />
  <path
    d="M16.2544 22.5821C16.2544 22.5821 12.3321 29.3462 7.99316 27.4654C7.99316 27.4654 8.86755 23.7328 16.2544 22.5821Z"
    fill="#FFDE02" />
  <path
    d="M13.2932 11.9988C13.2932 11.9988 16.0236 9.43339 21.9834 9.7551C21.9834 9.7551 15.3307 14.0363 13.2932 11.9988Z"
    fill="#FFDE02" />
  <path
    d="M16.5972 7.83722C16.5972 7.83722 19.1007 5.67602 24.314 6.20807C24.314 6.20807 18.3088 9.72622 16.5972 7.83722Z"
    fill="#FFDE02" />
  <path
    d="M10.8677 16.6676C10.8677 16.6676 13.2186 13.6321 19.8796 14.0156C19.8796 14.0156 13.6558 19.0887 10.8677 16.6676Z"
    fill="#FFDE02" />
  <path
    d="M8.96265 22.0129C8.96265 22.0129 10.3773 18.5443 17.9251 17.9339C17.9251 17.9339 13.0087 24.071 8.96265 22.0129Z"
    fill="#FFDE02" />
  <path
    d="M2.0664 21.2334C7.84475 25.7084 7.22608 30.1587 7.22608 30.1587C1.61271 28.4182 2.0664 21.2334 2.0664 21.2334Z"
    fill="#FFDE02" />
  <path
    d="M6.82631 35.9989C1.78211 35.3844 1.60889 28.3398 1.60889 28.3398C7.02428 31.3713 6.82631 35.9989 6.82631 35.9989Z"
    fill="#FFDE02" />
  <path
    d="M14.5677 31.7631C14.5677 31.7631 12.0848 38.721 7.39941 37.9869C7.39941 37.9869 7.49015 34.4316 14.5677 31.7631Z"
    fill="#FFDE02" />
  <path
    d="M7.20532 33.1902C7.20532 33.1902 7.93122 29.5689 14.9057 27.0984C14.9057 27.0984 11.3586 34.114 7.20532 33.1902Z"
    fill="#FFDE02" />
  <path d="M7.38275 40.5358C1.95911 41.6783 0 34.543 0 34.543C5.69173 35.2194 7.38275 40.5399 7.38275 40.5399"
    fill="#FFDE02" />
  <path
    d="M14.3653 36.2711C14.3653 36.2711 13.3919 42.8372 8.73541 43.7817C8.73541 43.7817 8.11674 40.0285 14.3653 36.2711Z"
    fill="#FFDE02" />
  <path
    d="M0.494873 40.7957C7.6714 41.5834 9.05721 45.6254 9.05721 45.6254C5.2421 47.9516 0.494873 40.7957 0.494873 40.7957Z"
    fill="#FFDE02" />
  <path
    d="M2.33472 47.3412C9.89069 46.5946 11.7178 50.4922 11.7178 50.4922C7.96458 53.7423 2.33472 47.3412 2.33472 47.3412Z"
    fill="#FFDE02" />
  <path
    d="M5.36157 53.4783C12.7155 51.346 15.1612 54.8311 15.1612 54.8311C11.9772 58.7081 5.36157 53.4783 5.36157 53.4783Z"
    fill="#FFDE02" />
  <path
    d="M11.268 48.9703C11.268 48.9703 10.2039 44.7386 15.4543 39.4428C15.4543 39.4428 15.5945 47.7288 11.268 48.9703Z"
    fill="#FFDE02" />
  <path
    d="M18.2215 5.75437C18.3122 5.85748 18.3122 6.02246 18.2091 6.13382C11.1192 13.3846 7.77014 22.2026 7.33295 34.7162C6.90814 47.0648 16.9017 57.8296 23.9668 60.56C31.3207 63.3935 32.7271 65.8475 32.7849 65.9465C32.855 66.0743 32.8138 66.2434 32.6941 66.3218C32.5704 66.3919 32.4178 66.3548 32.3436 66.2393C32.3312 66.2104 30.9206 63.8183 23.7854 61.0755C16.5841 58.2874 6.40495 47.3081 6.82977 34.7286C7.26696 22.0459 10.6655 13.1124 17.8627 5.75437C17.9616 5.64301 18.1307 5.64301 18.2215 5.75437Z"
    fill="#FFDE02" />
  <path
    d="M111.58 61.3188C113.592 66.0207 122.019 63.4553 122.019 63.4553C115.193 58.9514 111.58 61.3188 111.58 61.3188Z"
    fill="#FFDE02" />
  <path
    d="M116.698 58.5019C118.938 62.6304 126.956 58.7699 126.956 58.7699C120.047 55.6436 116.698 58.5019 116.698 58.5019Z"
    fill="#FFDE02" />
  <path
    d="M121.952 2.1785C120.583 8.20431 122.629 11.6317 122.629 11.6317C125.004 10.0149 121.952 2.1785 121.952 2.1785Z"
    fill="#FFDE02" />
  <path
    d="M118.117 0.0090332C117.803 5.07385 119.799 7.631 119.799 7.631C121.412 6.06371 118.117 0.0090332 118.117 0.0090332Z"
    fill="#FFDE02" />
  <path
    d="M118.228 6.33594C117.514 2.54558 111.955 0.145157 111.955 0.145157C114.561 5.46981 118.228 6.33594 118.228 6.33594Z"
    fill="#FFDE02" />
  <path
    d="M126.349 5.06148C123 11.3595 124.798 15.2653 124.798 15.2653C128.304 13.8135 126.349 5.06148 126.349 5.06148Z"
    fill="#FFDE02" />
  <path
    d="M129.516 9.81282C125.449 15.6943 126.683 19.9383 126.683 19.9383C130.267 19.0021 129.516 9.81282 129.516 9.81282Z"
    fill="#FFDE02" />
  <path
    d="M127.994 24.9867C133.1 22.8585 131.747 15.9253 131.747 15.9253C127.206 19.2661 127.994 24.9867 127.994 24.9867Z"
    fill="#FFDE02" />
  <path
    d="M113.674 49.9725C113.674 49.9725 108.49 57.6399 111.624 60.8322C111.624 60.8322 115.275 57.6564 113.674 49.9725Z"
    fill="#FFDE02" />
  <path
    d="M116.871 57.8626C116.871 57.8626 119.948 54.3651 116.727 47.0648C116.727 47.0648 113.823 55.4209 116.871 57.8626Z"
    fill="#FFDE02" />
  <path
    d="M121.057 53.9526C121.057 53.9526 123.156 49.5065 119.189 44.2519C119.189 44.2519 117.489 52.5421 121.057 53.9526Z"
    fill="#FFDE02" />
  <path
    d="M119.746 22.5821C119.746 22.5821 123.668 29.3462 128.007 27.4654C128.007 27.4654 127.133 23.7328 119.746 22.5821Z"
    fill="#FFDE02" />
  <path
    d="M122.707 11.9988C122.707 11.9988 119.977 9.43339 114.017 9.7551C114.017 9.7551 120.67 14.0363 122.707 11.9988Z"
    fill="#FFDE02" />
  <path
    d="M119.399 7.83722C119.399 7.83722 116.896 5.67602 111.682 6.20807C111.682 6.20807 117.688 9.72622 119.399 7.83722Z"
    fill="#FFDE02" />
  <path
    d="M125.132 16.6676C125.132 16.6676 122.781 13.6321 116.12 14.0156C116.12 14.0156 122.344 19.0887 125.132 16.6676Z"
    fill="#FFDE02" />
  <path
    d="M127.038 22.0129C127.038 22.0129 125.623 18.5443 118.075 17.9339C118.075 17.9339 122.992 24.071 127.038 22.0129Z"
    fill="#FFDE02" />
  <path
    d="M133.934 21.2334C128.155 25.7084 128.774 30.1587 128.774 30.1587C134.387 28.4182 133.934 21.2334 133.934 21.2334Z"
    fill="#FFDE02" />
  <path
    d="M129.17 35.9989C134.214 35.3844 134.388 28.3398 134.388 28.3398C128.972 31.3713 129.17 35.9989 129.17 35.9989Z"
    fill="#FFDE02" />
  <path
    d="M121.432 31.7631C121.432 31.7631 123.915 38.721 128.601 37.9869C128.601 37.9869 128.51 34.4316 121.432 31.7631Z"
    fill="#FFDE02" />
  <path
    d="M128.795 33.1902C128.795 33.1902 128.069 29.5689 121.094 27.0984C121.094 27.0984 124.641 34.114 128.795 33.1902Z"
    fill="#FFDE02" />
  <path d="M128.617 40.5358C134.041 41.6783 136 34.5388 136 34.5388C130.308 35.2153 128.617 40.5358 128.617 40.5358Z"
    fill="#FFDE02" />
  <path
    d="M121.635 36.2711C121.635 36.2711 122.608 42.8372 127.265 43.7817C127.265 43.7817 127.883 40.0285 121.635 36.2711Z"
    fill="#FFDE02" />
  <path
    d="M135.501 40.7957C128.324 41.5834 126.938 45.6254 126.938 45.6254C130.754 47.9516 135.501 40.7957 135.501 40.7957Z"
    fill="#FFDE02" />
  <path
    d="M133.661 47.3412C126.105 46.5946 124.278 50.4922 124.278 50.4922C128.032 53.7423 133.661 47.3412 133.661 47.3412Z"
    fill="#FFDE02" />
  <path
    d="M130.638 53.4783C123.284 51.346 120.838 54.8311 120.838 54.8311C124.022 58.7081 130.638 53.4783 130.638 53.4783Z"
    fill="#FFDE02" />
  <path
    d="M124.732 48.9703C124.732 48.9703 125.796 44.7386 120.546 39.4428C120.546 39.4428 120.406 47.7288 124.732 48.9703Z"
    fill="#FFDE02" />
  <path
    d="M117.778 5.75437C117.688 5.85748 117.688 6.02246 117.791 6.13382C124.876 13.3846 128.23 22.2026 128.667 34.7162C129.092 47.0648 119.098 57.8296 112.033 60.56C104.679 63.3935 103.273 65.8475 103.215 65.9465C103.145 66.0743 103.186 66.2434 103.306 66.3218C103.429 66.3919 103.582 66.3548 103.656 66.2393C103.669 66.2104 105.079 63.8183 112.214 61.0755C119.416 58.2874 129.595 47.3081 129.17 34.7286C128.733 22.0459 125.334 13.1124 118.137 5.75437C118.038 5.64301 117.869 5.64301 117.778 5.75437Z"
    fill="#FFDE02" />
</svg>
